<svg xmlns="http://www.w3.org/2000/svg" viewBox="0 0 99.32 67.74"><defs><style>.cls-1{fill:#fff;}.cls-2{fill:#29aae3;}.cls-3{fill:#196c91;}.cls-4{fill:#3f2f2f;}.cls-5{fill:#db3923;}.cls-6{fill:#d11f0d;}.cls-7{fill:#004d68;}.cls-8{fill:#055d7c;}.cls-9{fill:#fbb242;}.cls-10{fill:#9b5107;}.cls-11{fill:#3ac0ef;}.cls-12{fill:#f9c478;}.cls-13{fill:#bcfaff;}.cls-14{fill:#02331e;}.cls-15{fill:#008c2e;}</style></defs><g id="Camada_2" data-name="Camada 2"><g id="Layer_1" data-name="Layer 1"><path class="cls-1" d="M96,59H40a2.26,2.26,0,0,1-2.31-2.22V21.31A2.26,2.26,0,0,1,40,19.09H96a2.27,2.27,0,0,1,2.31,2.22V56.73A2.27,2.27,0,0,1,96,59Z"/><path class="cls-2" d="M96,59.91H40a3.25,3.25,0,0,1-3.3-3.18V21.31A3.25,3.25,0,0,1,40,18.13H96a3.25,3.25,0,0,1,3.3,3.18V56.73A3.25,3.25,0,0,1,96,59.91ZM40,20a1.3,1.3,0,0,0-1.32,1.27V56.73A1.3,1.3,0,0,0,40,58H96a1.3,1.3,0,0,0,1.32-1.27V21.31A1.3,1.3,0,0,0,96,20Z"/><rect class="cls-3" x="61.52" y="59.77" width="14.1" height="7.97"/><rect class="cls-2" x="51.38" y="66" width="34.61" height="1.75"/><path class="cls-4" d="M46.59,38.05h1v-6c0-3,2.74-5.5,6.14-5.5h2.2c3.38,0,6.13,2.47,6.13,5.5v6h1v-6c0-3.55-3.2-6.44-7.12-6.44h-2.2c-3.93,0-7.13,2.89-7.13,6.44Z"/><path class="cls-4" d="M63.44,34.86V39c0,.93-2.35,1.71-3.33,1.71V33.16C61.09,33.16,63.44,33.94,63.44,34.86Z"/><path class="cls-4" d="M46.19,34.86V39c0,.93,2.33,1.71,3.32,1.71V33.16C48.52,33.16,46.19,33.94,46.19,34.86Z"/><path class="cls-5" d="M35.37,54.25l-.54.33c-.31.18-.76.47-1.23.69s-1,.44-1.35.58l-.64.21.28-1.26-.13,0a14.77,14.77,0,0,1-7.41-3.9,10.85,10.85,0,0,1-3.26-7.53H23a9.17,9.17,0,0,0,2.74,6.29A13.08,13.08,0,0,0,32.17,53h.11l.29-1.25.36.43c.23.24.56.55.9.87a12.24,12.24,0,0,0,1,.82Z"/><path class="cls-5" d="M28.4,12.74s0-.25,0-.61a12,12,0,0,1,0-1.36c0-.5.08-1,.15-1.4s.11-.65.11-.65l1,.86.09-.09A14.75,14.75,0,0,1,37,5.31a12.24,12.24,0,0,1,8.48,1l-1,1.57a10.14,10.14,0,0,0-7.09-.85,12.8,12.8,0,0,0-6.3,3.64l-.08.08,1,.87-.56.08c-.35.07-.78.18-1.25.31s-.9.31-1.26.44Z"/><path class="cls-1" d="M70.58.71H56.89a5.58,5.58,0,0,0-5.72,5.45v4.28a5.59,5.59,0,0,0,5.72,5.46h7.85A.33.33,0,0,1,65,16l6.76,7.83-1.57-7.55a.38.38,0,0,1,.37-.41,5.6,5.6,0,0,0,5.72-5.46V6.16A5.6,5.6,0,0,0,70.58.71Z"/><path class="cls-6" d="M70.58,0H56.89a6.32,6.32,0,0,0-6.47,6.16v4.28a6.32,6.32,0,0,0,6.47,6.16h7.68l7.56,8.8a.4.4,0,0,0,.3.13.42.42,0,0,0,.15,0,.38.38,0,0,0,.21-.39L71,16.59a6.3,6.3,0,0,0,6-6.15V6.16A6.31,6.31,0,0,0,70.58,0ZM76.3,10.44a5.6,5.6,0,0,1-5.72,5.46.38.38,0,0,0-.37.41l1.57,7.55L65,16a.33.33,0,0,0-.28-.13H56.89a5.59,5.59,0,0,1-5.72-5.46V6.16A5.58,5.58,0,0,1,56.89.71H70.58A5.6,5.6,0,0,1,76.3,6.16Z"/><path class="cls-7" d="M70.74,12.39A19.67,19.67,0,0,1,58,12.32l0-5.93c4.26,0,8.52.05,12.78.06C70.75,8.43,70.75,10.41,70.74,12.39Z"/><path class="cls-8" d="M73.14,6.78,64.45,9a.28.28,0,0,1-.18,0L55.61,6.7a.33.33,0,0,1,0-.64L64.3,3.87a.48.48,0,0,1,.17,0l8.67,2.27A.33.33,0,0,1,73.14,6.78Z"/><path class="cls-9" d="M69.36,11h0a.16.16,0,0,1-.15-.15l0-3L64.33,6.56a.14.14,0,0,1-.1-.18.14.14,0,0,1,.18-.1l5.11,1.34V10.8A.15.15,0,0,1,69.36,11Z"/><path class="cls-9" d="M70.24,11.64a3.06,3.06,0,0,1-1.87,0c0-.45,0-.89,0-1.33a.92.92,0,0,1,.93-.89h0a.92.92,0,0,1,.92.89C70.24,10.75,70.24,11.19,70.24,11.64Z"/><rect class="cls-9" x="50.82" y="43.34" width="7.99" height="3.54"/><polygon class="cls-2" points="70.93 52.27 70.89 52.26 61.35 48.41 48.28 48.41 38.7 52.27 36.31 67.74 73.3 67.74 70.93 52.27"/><path class="cls-10" d="M60.55,41.59a38.77,38.77,0,0,0,1.3-5.06A5.32,5.32,0,0,0,61.94,35c0-4.28-3.19-7.74-7.13-7.74S47.69,30.69,47.69,35a5.32,5.32,0,0,0,.09,1.56,32.13,32.13,0,0,0,1.28,4.93,6.67,6.67,0,0,0,2.95,3,9.24,9.24,0,0,0,5.81.06A6.4,6.4,0,0,0,60.55,41.59Z"/><polygon class="cls-11" points="58.83 45.67 50.59 45.67 48.28 48.41 61.35 48.41 58.83 45.67"/><polygon class="cls-12" points="80.15 35.92 80.15 39.63 83.69 39.63 83.69 38.1 83.04 38.73 80.15 35.92"/><path class="cls-9" d="M82,36.66a2.69,2.69,0,0,1-1.84-.75h0L83,38.72l.65-.62V36A2.75,2.75,0,0,1,82,36.66Z"/><polygon class="cls-13" points="79.89 36.66 81.95 37.75 83.97 36.66 85.73 37.83 81.92 42.56 78.3 37.68 79.89 36.66"/><path class="cls-12" d="M84.93,34.14l-.06,0-.05,0v0a2.84,2.84,0,0,1-5.64,0v0l-.06,0,0,0h0c-.25,0-.68-.62-.72-1.28s0-1.19,0-1.27h0a.51.51,0,0,1,.32.25l.14.18-.06-.21a2.11,2.11,0,0,1-.11-.66,3.3,3.3,0,1,1,6.6,0,2.11,2.11,0,0,1-.11.66l-.06.21.14-.18c.11-.16.23-.25.31-.25h0a2.77,2.77,0,0,1,0,1.27C85.59,33.52,85.17,34.14,84.93,34.14Z"/><path class="cls-4" d="M81.92,29.77a9.33,9.33,0,0,0,1.58-.23c.48,0,.8.46,1,1,.39.87.09,1.91.57,1.49s0-2.47,0-2.47a2.79,2.79,0,0,0-2.18-1.93c-1.65-.18-3.41.21-4,1.8s-.27,2.4-.08,2.6.28-.26.54-1.26.57-1.39,1-1.31A6.34,6.34,0,0,0,81.92,29.77Z"/><polygon class="cls-6" points="82.9 38.05 81.96 37.62 81.96 43.3 81.97 43.3 82.9 41.99 82.36 38.75 82.9 38.05"/><polygon class="cls-5" points="81.95 37.62 81.94 37.62 81.93 37.62 81.04 38.05 81.59 38.75 81.04 41.99 81.96 43.3 81.96 43.3 81.96 37.62 81.95 37.62"/><polygon class="cls-14" points="81.92 46.57 81.92 42.56 85.03 37.38 90.19 39.37 91.66 46.57 81.92 46.57"/><polygon class="cls-15" points="81.92 46.57 81.92 42.56 78.81 37.38 73.64 39.37 72.17 46.57 81.92 46.57"/><polygon class="cls-15" points="86.21 37.8 85.03 37.38 81.92 42.56 84.27 40.8 84.25 39.97 85.15 39.97 86.21 37.8"/><polygon class="cls-14" points="77.62 37.8 78.81 37.38 81.92 42.56 79.56 40.8 79.58 39.97 78.69 39.97 77.62 37.8"/><polygon class="cls-12" points="27.14 28.26 27.14 29.88 28.6 29.88 28.6 29.21 28.33 29.48 27.14 28.26"/><path class="cls-9" d="M27.9,28.57a1,1,0,0,1-.75-.32h0l1.19,1.22.27-.27V28.3A1,1,0,0,1,27.9,28.57Z"/><polygon class="cls-13" points="27.03 28.57 27.88 29.05 28.72 28.57 29.46 29.09 27.87 31.16 26.37 29.02 27.03 28.57"/><path class="cls-12" d="M29.13,27.47h-.06v0a1.17,1.17,0,0,1-2.34,0v0h0c-.1,0-.28-.27-.3-.56s0-.52,0-.55h0a.2.2,0,0,1,.13.11l.06.08,0-.09a.89.89,0,0,1,0-.3,1.38,1.38,0,1,1,2.74,0,1.25,1.25,0,0,1-.05.3l0,.09.05-.08c.06-.07.1-.11.14-.11h0a1.3,1.3,0,0,1,0,.55C29.4,27.2,29.22,27.47,29.13,27.47Z"/><path class="cls-10" d="M27.87,25.55a4.63,4.63,0,0,0,.65-.09c.21,0,.35.2.43.43s.05.83.25.65,0-1.08,0-1.08-.22-.78-.9-.85a1.45,1.45,0,0,0-1.67.79c-.23.7-.1,1.05,0,1.14s.11-.12.22-.56.24-.61.42-.57A2.62,2.62,0,0,0,27.87,25.55Z"/><polygon class="cls-9" points="28.28 29.02 27.89 29 27.89 31.49 27.89 31.49 28.28 30.91 28.05 29.5 28.28 29.02"/><polygon class="cls-12" points="27.88 29 27.87 29 27.87 29 27.51 29.02 27.73 29.5 27.51 30.91 27.89 31.49 27.89 31.49 27.89 29 27.88 29"/><polygon class="cls-2" points="27.87 32.93 27.87 31.16 29.16 28.89 31.29 29.77 31.92 32.93 27.87 32.93"/><polygon class="cls-11" points="27.87 32.93 27.87 31.16 26.58 28.89 24.45 29.77 23.84 32.93 27.87 32.93"/><polygon class="cls-11" points="29.66 29.08 29.16 28.89 27.87 31.16 28.85 30.39 28.84 30.02 29.22 30.02 29.66 29.08"/><polygon class="cls-2" points="26.09 29.08 26.58 28.89 27.87 31.16 26.89 30.39 26.9 30.02 26.53 30.02 26.09 29.08"/><polygon class="cls-12" points="3.3 28.26 3.3 29.88 4.77 29.88 4.77 29.21 4.5 29.48 3.3 28.26"/><path class="cls-9" d="M4.07,28.57a1.07,1.07,0,0,1-.77-.32h0l1.2,1.22.27-.27V28.3A1,1,0,0,1,4.07,28.57Z"/><polygon class="cls-13" points="3.19 28.57 4.06 29.05 4.89 28.57 5.61 29.09 4.04 31.16 2.54 29.02 3.19 28.57"/><path class="cls-12" d="M5.28,27.47h0v0a1.28,1.28,0,0,1-1.17,1.1,1.25,1.25,0,0,1-1.17-1.1v0h0c-.1,0-.28-.27-.29-.56a1.3,1.3,0,0,1,0-.55h0s.08,0,.14.11l0,.08,0-.09a1.92,1.92,0,0,1,0-.3,1.44,1.44,0,0,1,1.37-1.5,1.44,1.44,0,0,1,1.36,1.5.86.86,0,0,1,0,.3l0,.09.07-.08c0-.07.09-.11.12-.11h0s.05.22,0,.55S5.38,27.47,5.28,27.47Z"/><path class="cls-10" d="M4,25.55a5.74,5.74,0,0,0,.67-.09c.19,0,.32.2.42.43s0,.83.24.65,0-1.08,0-1.08-.21-.78-.9-.85a1.42,1.42,0,0,0-1.65.79c-.25.7-.12,1.05,0,1.14s.12-.12.23-.56.24-.61.41-.57A2.5,2.5,0,0,0,4,25.55Z"/><polygon class="cls-9" points="4.45 29.02 4.06 29 4.06 31.49 4.06 31.49 4.45 30.91 4.22 29.5 4.45 29.02"/><polygon class="cls-12" points="4.05 29 4.04 29 4.04 29 3.67 29.02 3.91 29.5 3.67 30.91 4.06 31.49 4.06 31.49 4.06 29 4.05 29"/><polygon class="cls-2" points="4.04 32.93 4.04 31.16 5.33 28.89 7.46 29.77 8.07 32.93 4.04 32.93"/><polygon class="cls-11" points="4.04 32.93 4.04 31.16 2.74 28.89 0.61 29.77 0 32.93 4.04 32.93"/><polygon class="cls-11" points="5.81 29.08 5.33 28.89 4.04 31.16 5.01 30.39 5 30.02 5.37 30.02 5.81 29.08"/><polygon class="cls-2" points="2.26 29.08 2.74 28.89 4.04 31.16 3.06 30.39 3.07 30.02 2.7 30.02 2.26 29.08"/><polygon class="cls-12" points="15.3 26.36 15.3 27.99 16.77 27.99 16.77 27.32 16.51 27.59 15.3 26.36"/><path class="cls-9" d="M16.07,26.68a1.09,1.09,0,0,1-.76-.32h0l1.2,1.23.26-.27v-.91A1.07,1.07,0,0,1,16.07,26.68Z"/><polygon class="cls-13" points="15.21 26.68 16.06 27.16 16.89 26.68 17.63 27.19 16.04 29.27 14.55 27.13 15.21 26.68"/><path class="cls-12" d="M17.29,25.58h0l0,0v0a1.17,1.17,0,0,1-2.33,0v0l0,0h0c-.09,0-.27-.28-.3-.56s0-.52,0-.56h0a.2.2,0,0,1,.13.11l0,.07v-.09a.83.83,0,0,1-.06-.29,1.38,1.38,0,1,1,2.75,0,.83.83,0,0,1-.06.29l0,.09.06-.07a.22.22,0,0,1,.12-.11h0s.05.22,0,.56S17.38,25.58,17.29,25.58Z"/><path class="cls-10" d="M16,23.66a3.84,3.84,0,0,0,.66-.1c.2,0,.33.21.43.43.16.38.05.84.24.65s0-1.08,0-1.08-.22-.77-.89-.84a1.43,1.43,0,0,0-1.67.79c-.24.69-.12,1,0,1.13s.12-.11.23-.55.24-.61.41-.58A2,2,0,0,0,16,23.66Z"/><polygon class="cls-9" points="16.45 27.13 16.06 27.1 16.06 29.59 16.07 29.59 16.45 29.02 16.22 27.6 16.45 27.13"/><polygon class="cls-12" points="16.05 27.1 16.05 27.1 16.04 27.1 15.67 27.13 15.91 27.6 15.67 29.02 16.06 29.59 16.06 29.59 16.06 27.1 16.05 27.1"/><polygon class="cls-2" points="16.04 31.04 16.04 29.27 17.33 27 19.46 27.88 20.07 31.04 16.04 31.04"/><polygon class="cls-11" points="16.04 31.04 16.04 29.27 14.76 27 12.61 27.88 12 31.04 16.04 31.04"/><polygon class="cls-11" points="17.82 27.19 17.33 27 16.04 29.27 17.01 28.5 17.01 28.13 17.37 28.13 17.82 27.19"/><polygon class="cls-2" points="14.26 27.19 14.76 27 16.04 29.27 15.06 28.5 15.07 28.13 14.7 28.13 14.26 27.19"/><polygon class="cls-12" points="21.41 20.36 21.41 21.99 22.86 21.99 22.86 21.32 22.6 21.59 21.41 20.36"/><path class="cls-9" d="M22.16,20.69a1,1,0,0,1-.75-.33h0l1.19,1.23.26-.27v-.91A1.07,1.07,0,0,1,22.16,20.69Z"/><polygon class="cls-13" points="21.3 20.68 22.15 21.17 22.99 20.68 23.72 21.2 22.13 23.27 20.64 21.13 21.3 20.68"/><path class="cls-12" d="M23.38,19.58h-.05v0a1.17,1.17,0,0,1-2.33,0v0h0c-.09,0-.27-.27-.3-.56s0-.52,0-.56h0a.22.22,0,0,1,.12.11l.06.08,0-.09a1.1,1.1,0,0,1-.05-.29,1.38,1.38,0,1,1,2.75,0,.83.83,0,0,1-.06.29v.09l.05-.08a.2.2,0,0,1,.14-.11h0a1.38,1.38,0,0,1,0,.56C23.66,19.31,23.48,19.58,23.38,19.58Z"/><path class="cls-10" d="M22.13,17.67a3.62,3.62,0,0,0,.66-.11c.2,0,.33.2.43.43.16.38.05.84.25.66s0-1.09,0-1.09a1.22,1.22,0,0,0-.91-.84,1.43,1.43,0,0,0-1.66.78c-.24.71-.12,1.06,0,1.15s.11-.11.22-.55.24-.61.41-.58A3.22,3.22,0,0,0,22.13,17.67Z"/><polygon class="cls-9" points="22.54 21.13 22.15 21.11 22.15 23.6 22.15 23.6 22.54 23.03 22.31 21.61 22.54 21.13"/><polygon class="cls-12" points="22.14 21.11 22.14 21.11 22.13 21.11 21.77 21.13 22 21.61 21.77 23.03 22.15 23.6 22.15 23.6 22.15 21.11 22.14 21.11"/><polygon class="cls-2" points="22.13 25.03 22.13 23.27 23.42 21 25.55 21.88 26.17 25.03 22.13 25.03"/><polygon class="cls-11" points="22.13 25.03 22.13 23.27 20.85 21 18.71 21.88 18.09 25.03 22.13 25.03"/><polygon class="cls-11" points="23.92 21.19 23.42 21 22.13 23.27 23.12 22.5 23.11 22.13 23.48 22.13 23.92 21.19"/><polygon class="cls-2" points="20.35 21.19 20.85 21 22.13 23.27 21.15 22.5 21.16 22.13 20.79 22.13 20.35 21.19"/><polygon class="cls-12" points="9.38 20.36 9.38 21.99 10.86 21.99 10.86 21.32 10.59 21.59 9.38 20.36"/><path class="cls-9" d="M10.16,20.69a1.11,1.11,0,0,1-.78-.33h0l1.21,1.23.27-.27v-.91A1.13,1.13,0,0,1,10.16,20.69Z"/><polygon class="cls-13" points="9.29 20.68 10.14 21.17 10.98 20.68 11.71 21.2 10.12 23.27 8.63 21.13 9.29 20.68"/><path class="cls-12" d="M11.37,19.58h0v0a1.26,1.26,0,0,1-1.16,1.11A1.25,1.25,0,0,1,9,19.58v0H8.93c-.09,0-.27-.27-.28-.56a1.38,1.38,0,0,1,0-.56h0a.2.2,0,0,1,.14.11l0,.08v-.09a.83.83,0,0,1-.06-.29,1.45,1.45,0,0,1,1.38-1.51,1.45,1.45,0,0,1,1.37,1.51.83.83,0,0,1-.06.29l0,.09.06-.08a.22.22,0,0,1,.12-.11h0a1.13,1.13,0,0,1,0,.56C11.64,19.31,11.46,19.58,11.37,19.58Z"/><path class="cls-10" d="M10.12,17.67a3.78,3.78,0,0,0,.66-.11c.2,0,.33.2.43.43.16.38,0,.84.24.66s0-1.09,0-1.09a1.2,1.2,0,0,0-.9-.84,1.43,1.43,0,0,0-1.66.78c-.24.71-.11,1.06,0,1.15s.12-.11.23-.55.24-.61.42-.58A2.74,2.74,0,0,0,10.12,17.67Z"/><polygon class="cls-9" points="10.53 21.13 10.14 21.11 10.14 23.6 10.14 23.6 10.53 23.03 10.3 21.61 10.53 21.13"/><polygon class="cls-12" points="10.13 21.11 10.13 21.11 10.12 21.11 9.75 21.13 9.99 21.61 9.75 23.03 10.14 23.6 10.14 23.6 10.14 21.11 10.13 21.11"/><polygon class="cls-2" points="10.12 25.03 10.12 23.27 11.41 21 13.55 21.88 14.15 25.03 10.12 25.03"/><polygon class="cls-11" points="10.12 25.03 10.12 23.27 8.84 21 6.69 21.88 6.08 25.03 10.12 25.03"/><polygon class="cls-11" points="11.89 21.19 11.41 21 10.12 23.27 11.09 22.5 11.09 22.13 11.46 22.13 11.89 21.19"/><polygon class="cls-2" points="8.34 21.19 8.84 21 10.12 23.27 9.14 22.5 9.15 22.13 8.78 22.13 8.34 21.19"/><polygon class="cls-12" points="20.35 34.61 20.35 36.24 21.83 36.24 21.83 35.55 21.56 35.84 20.35 34.61"/><path class="cls-9" d="M21.13,34.93a1.1,1.1,0,0,1-.77-.32h0l1.21,1.22.27-.28v-.89A1.1,1.1,0,0,1,21.13,34.93Z"/><polygon class="cls-13" points="20.25 34.93 21.11 35.41 21.95 34.93 22.67 35.45 21.09 37.52 19.6 35.38 20.25 34.93"/><path class="cls-12" d="M22.34,33.82h0v0a1.26,1.26,0,0,1-1.16,1.11A1.24,1.24,0,0,1,20,33.82v0l0,0h0c-.1,0-.28-.26-.29-.56a1.92,1.92,0,0,1,0-.55h0s.08,0,.14.1l.05.08,0-.09a1.67,1.67,0,0,1,0-.29,1.38,1.38,0,1,1,2.74,0,.8.8,0,0,1,0,.29l0,.09.07-.08a.24.24,0,0,1,.12-.1h0a1.17,1.17,0,0,1,0,.55C22.61,33.56,22.43,33.82,22.34,33.82Z"/><path class="cls-10" d="M21.09,31.91a3.84,3.84,0,0,0,.66-.1c.2,0,.33.2.43.43s0,.83.23.65,0-1.08,0-1.08a1.16,1.16,0,0,0-.9-.84,1.42,1.42,0,0,0-1.65.78c-.25.7-.11,1,0,1.14s.12-.11.23-.55.24-.61.42-.58A2,2,0,0,0,21.09,31.91Z"/><polygon class="cls-9" points="21.5 35.38 21.11 35.35 21.11 37.84 21.12 37.84 21.5 37.27 21.27 35.84 21.5 35.38"/><polygon class="cls-12" points="21.11 35.35 21.1 35.36 21.09 35.35 20.73 35.38 20.96 35.84 20.73 37.27 21.11 37.84 21.11 37.84 21.11 35.35 21.11 35.35"/><polygon class="cls-2" points="21.09 39.28 21.09 37.52 22.39 35.24 24.52 36.12 25.13 39.28 21.09 39.28"/><polygon class="cls-11" points="21.09 39.28 21.09 37.52 19.8 35.24 17.66 36.12 17.05 39.28 21.09 39.28"/><polygon class="cls-11" points="22.86 35.44 22.39 35.24 21.09 37.52 22.06 36.75 22.05 36.38 22.43 36.38 22.86 35.44"/><polygon class="cls-2" points="19.31 35.44 19.8 35.24 21.09 37.52 20.12 36.75 20.13 36.38 19.75 36.38 19.31 35.44"/><polygon class="cls-12" points="10.12 34.61 10.12 36.24 11.59 36.24 11.59 35.55 11.33 35.84 10.12 34.61"/><path class="cls-9" d="M10.89,34.93a1.14,1.14,0,0,1-.77-.32h0l1.21,1.22.26-.28v-.89A1.07,1.07,0,0,1,10.89,34.93Z"/><polygon class="cls-13" points="10.01 34.93 10.88 35.41 11.71 34.93 12.43 35.45 10.86 37.52 9.37 35.38 10.01 34.93"/><path class="cls-12" d="M12.1,33.82h0v0a1.26,1.26,0,0,1-1.17,1.11,1.25,1.25,0,0,1-1.17-1.11v0l0,0h0c-.1,0-.28-.26-.29-.56a1.34,1.34,0,0,1,0-.55h0s.08,0,.14.1l.05.08,0-.09a1.67,1.67,0,0,1,0-.29A1.44,1.44,0,0,1,10.89,31a1.43,1.43,0,0,1,1.36,1.5.78.78,0,0,1,0,.29l0,.09.06-.08a.29.29,0,0,1,.13-.1h0a1.1,1.1,0,0,1,0,.55C12.38,33.56,12.2,33.82,12.1,33.82Z"/><path class="cls-10" d="M10.86,31.91a4,4,0,0,0,.66-.1c.19,0,.32.2.43.43s0,.83.23.65,0-1.08,0-1.08a1.18,1.18,0,0,0-.9-.84,1.42,1.42,0,0,0-1.65.78c-.25.7-.12,1,0,1.14s.12-.11.23-.55.24-.61.41-.58A2,2,0,0,0,10.86,31.91Z"/><polygon class="cls-9" points="11.27 35.38 10.88 35.35 10.88 37.84 10.88 37.84 11.27 37.27 11.04 35.84 11.27 35.38"/><polygon class="cls-12" points="10.87 35.35 10.87 35.36 10.86 35.35 10.49 35.38 10.72 35.84 10.49 37.27 10.88 37.84 10.88 37.84 10.88 35.35 10.87 35.35"/><polygon class="cls-2" points="10.86 39.28 10.86 37.52 12.15 35.24 14.28 36.12 14.89 39.28 10.86 39.28"/><polygon class="cls-11" points="10.86 39.28 10.86 37.52 9.56 35.24 7.43 36.12 6.82 39.28 10.86 39.28"/><polygon class="cls-11" points="12.63 35.44 12.15 35.24 10.86 37.52 11.82 36.75 11.82 36.38 12.19 36.38 12.63 35.44"/><polygon class="cls-2" points="9.08 35.44 9.56 35.24 10.86 37.52 9.88 36.75 9.89 36.38 9.52 36.38 9.08 35.44"/></g></g></svg>