<svg xmlns="http://www.w3.org/2000/svg" viewBox="0 0 99.66 78.59"><defs><style>.cls-1{fill:#fff;}.cls-2{fill:#29aae3;}.cls-3{fill:#196c91;}.cls-4{fill:#ffc988;}.cls-5{fill:#f4b867;}.cls-6{fill:#bcfaff;}.cls-7{fill:#3f2f2f;}.cls-8{fill:#022616;}.cls-9{fill:#02331e;}.cls-10{fill:#2382a3;}.cls-11{fill:#05a2cc;}.cls-12{fill:#055d7c;}.cls-13{fill:#004d68;}.cls-14{fill:#7d6b67;}.cls-15{fill:#635552;}.cls-16{fill:#66ba82;}.cls-17{fill:#99d1ab;}</style></defs><g id="Camada_2" data-name="Camada 2"><g id="Layer_1" data-name="Layer 1"><path class="cls-1" d="M94.41,64.66H5.25a3.59,3.59,0,0,1-3.67-3.52V5A3.6,3.6,0,0,1,5.25,1.51H94.41A3.61,3.61,0,0,1,98.09,5v56.1A3.6,3.6,0,0,1,94.41,64.66Z"/><path class="cls-2" d="M94.41,66.18H5.25a5.16,5.16,0,0,1-5.25-5V5A5.16,5.16,0,0,1,5.25,0H94.41a5.15,5.15,0,0,1,5.25,5v56.1A5.15,5.15,0,0,1,94.41,66.18ZM5.25,3A2.05,2.05,0,0,0,3.16,5v56.1a2.05,2.05,0,0,0,2.09,2H94.41a2.06,2.06,0,0,0,2.1-2V5a2.06,2.06,0,0,0-2.1-2Z"/><rect class="cls-3" x="39.53" y="65.97" width="22.44" height="12.62"/><rect class="cls-2" x="23.4" y="75.82" width="55.06" height="2.77"/><polygon class="cls-4" points="47.75 43.38 47.75 47.94 51.91 47.94 51.91 46.06 51.16 46.82 47.75 43.38"/><path class="cls-5" d="M49.92,44.28a3.08,3.08,0,0,1-2.16-.9h0l3.41,3.44.75-.76V43.52A3,3,0,0,1,49.92,44.28Z"/><polygon class="cls-6" points="47.45 44.28 49.88 45.62 52.25 44.28 54.32 45.72 49.83 51.52 45.59 45.54 47.45 44.28"/><path class="cls-4" d="M53.37,41.19l-.06,0-.07-.05v.08a3.32,3.32,0,0,1-6.62,0l0-.08-.06.05-.06,0h0c-.28,0-.78-.76-.84-1.57a3.5,3.5,0,0,1,0-1.55h0c.1,0,.24.11.38.3l.16.22-.07-.25a2.94,2.94,0,0,1-.14-.82,3.9,3.9,0,1,1,7.77,0,2.89,2.89,0,0,1-.13.82l-.07.25.15-.22c.14-.19.29-.3.38-.3h0a3.5,3.5,0,0,1,.05,1.55C54.15,40.43,53.65,41.19,53.37,41.19Z"/><path class="cls-7" d="M49.83,35.83a11.4,11.4,0,0,0,1.87-.28c.56,0,.94.56,1.22,1.2.47,1.07.12,2.34.68,1.83s0-3,0-3A3.37,3.37,0,0,0,51,33.19c-1.94-.23-4,.25-4.7,2.2s-.32,2.94-.1,3.19.33-.32.63-1.55.69-1.7,1.19-1.61A6.46,6.46,0,0,0,49.83,35.83Z"/><polygon class="cls-8" points="50.69 45.98 49.89 45.46 49.89 52.43 49.9 52.44 50.98 50.83 50.35 46.85 50.69 45.98"/><polygon class="cls-9" points="49.87 45.46 49.86 45.47 49.84 45.46 49.14 45.96 49.44 46.85 48.8 50.83 49.89 52.44 49.89 52.43 49.89 45.46 49.87 45.46"/><polygon class="cls-10" points="49.83 57.29 49.83 51.52 53.49 45.15 59.55 47.62 61.28 57.29 49.83 57.29"/><polygon class="cls-11" points="49.83 57.29 49.83 51.52 46.17 45.15 40.11 47.62 38.38 57.29 49.83 57.29"/><polygon class="cls-11" points="54.88 45.7 53.49 45.15 49.83 51.52 52.6 49.37 52.57 48.34 53.63 48.34 54.88 45.7"/><polygon class="cls-10" points="44.78 45.7 46.17 45.15 49.83 51.52 47.07 49.37 47.09 48.34 46.03 48.34 44.78 45.7"/><path class="cls-12" d="M42.63,56.84a.63.63,0,0,0,.64.45H56.18a.62.62,0,0,0,.63-.45l1.11-7.6c0-.24-.19-.45-.5-.45H42c-.31,0-.54.21-.5.45Z"/><rect class="cls-13" x="35.39" y="57.29" width="28.89" height="3.04"/><path class="cls-14" d="M44.8,39.84h.62V36.26A3.6,3.6,0,0,1,49.26,33h1.38a3.59,3.59,0,0,1,3.83,3.29v3.58h.62V36.26c0-2.13-2-3.86-4.45-3.86H49.26c-2.46,0-4.46,1.73-4.46,3.86Z"/><path class="cls-15" d="M55.35,37.93v2.5c0,.55-1.47,1-2.09,1V36.91C53.88,36.91,55.35,37.38,55.35,37.93Z"/><path class="cls-15" d="M44.55,37.93v2.5c0,.55,1.46,1,2.08,1V36.91C46,36.91,44.55,37.38,44.55,37.93Z"/><polygon class="cls-4" points="22.37 28.46 22.37 32.07 25.67 32.07 25.67 30.58 25.07 31.18 22.37 28.46"/><path class="cls-5" d="M24.09,29.17a2.42,2.42,0,0,1-1.71-.72h0l2.7,2.72.6-.6v-2A2.41,2.41,0,0,1,24.09,29.17Z"/><path class="cls-4" d="M26.83,26.72s0,0-.06,0l0,0,0,.06a2.8,2.8,0,0,1-2.62,2.44,2.8,2.8,0,0,1-2.62-2.44l0-.06,0,0a.06.06,0,0,1-.05,0h0c-.22,0-.62-.6-.67-1.24a2.86,2.86,0,0,1,0-1.23h0c.08,0,.19.09.3.24l.13.17-.06-.2a2,2,0,0,1-.11-.64,3.21,3.21,0,0,1,3.08-3.33,3.21,3.21,0,0,1,3.08,3.33,2.32,2.32,0,0,1-.11.64l-.06.2.13-.17c.11-.15.22-.24.3-.24h0a2.86,2.86,0,0,1,0,1.23C27.45,26.12,27.05,26.72,26.83,26.72Z"/><path class="cls-7" d="M24,22.48a9.42,9.42,0,0,0,1.48-.23c.45,0,.75.45,1,.95.37.85.09,1.86.53,1.45s0-2.4,0-2.4a2.64,2.64,0,0,0-2-1.87c-1.54-.18-3.18.2-3.73,1.75s-.25,2.33-.07,2.52.26-.25.49-1.22.55-1.35.95-1.28A5.07,5.07,0,0,0,24,22.48Z"/><path class="cls-16" d="M24,39.48l.1-8,1.55-1.64,3.26,1.06a4.78,4.78,0,0,1,3.29,3.69l.88,4.87Z"/><path class="cls-17" d="M24,39.48l.1-8-1.75-1.64-3.26,1.06a4.79,4.79,0,0,0-3.29,3.69l-.88,4.87Z"/><path class="cls-12" d="M18.32,39.12a.48.48,0,0,0,.5.36H29.05a.49.49,0,0,0,.5-.36l.88-6c0-.2-.15-.36-.39-.36H17.83c-.25,0-.43.16-.4.36Z"/><rect class="cls-13" x="12.57" y="39.48" width="22.89" height="2.41"/><path class="cls-14" d="M20,25.65h.49V22.82a2.85,2.85,0,0,1,3-2.62h1.1a2.86,2.86,0,0,1,3,2.62v2.83h.49V22.82a3.32,3.32,0,0,0-3.53-3.06h-1.1A3.32,3.32,0,0,0,20,22.82Z"/><path class="cls-15" d="M28.39,24.14v2c0,.43-1.16.81-1.65.81v-3.6C27.23,23.33,28.39,23.7,28.39,24.14Z"/><path class="cls-15" d="M19.84,24.14v2c0,.43,1.16.81,1.64.81v-3.6C21,23.33,19.84,23.7,19.84,24.14Z"/><polygon class="cls-4" points="73.77 28.46 73.77 32.07 77.08 32.07 77.08 30.58 76.48 31.18 73.77 28.46"/><path class="cls-5" d="M75.49,29.17a2.43,2.43,0,0,1-1.71-.72h0l2.71,2.72.6-.6v-2A2.45,2.45,0,0,1,75.49,29.17Z"/><path class="cls-4" d="M78.23,26.72s0,0,0,0l-.05,0v.06a2.63,2.63,0,0,1-5.25,0v-.06l0,0a.06.06,0,0,1,0,0h0c-.22,0-.62-.6-.67-1.24a2.86,2.86,0,0,1,0-1.23h0c.08,0,.19.09.3.24l.13.17-.06-.2a2.32,2.32,0,0,1-.11-.64,3.09,3.09,0,1,1,6.16,0,2.28,2.28,0,0,1-.1.64l-.06.2.12-.17c.11-.15.23-.24.3-.24h0a2.69,2.69,0,0,1,0,1.23C78.85,26.12,78.45,26.72,78.23,26.72Z"/><path class="cls-7" d="M75.42,22.48a9.23,9.23,0,0,0,1.48-.23c.45,0,.75.45,1,.95.37.85.09,1.86.54,1.45s0-2.4,0-2.4a2.66,2.66,0,0,0-2-1.87c-1.54-.18-3.18.2-3.73,1.75s-.25,2.33-.07,2.52.26-.25.5-1.22.54-1.35.94-1.28A5.17,5.17,0,0,0,75.42,22.48Z"/><path class="cls-16" d="M75.42,39.48l.1-8,1.56-1.64,3.25,1.06a4.8,4.8,0,0,1,3.3,3.69l.87,4.87Z"/><path class="cls-17" d="M75.42,39.48l.1-8-1.75-1.64-3.26,1.06a4.79,4.79,0,0,0-3.29,3.69l-.87,4.87Z"/><path class="cls-12" d="M69.72,39.12a.49.49,0,0,0,.5.36H80.45a.49.49,0,0,0,.5-.36l.89-6c0-.2-.15-.36-.4-.36H69.23c-.24,0-.42.16-.39.36Z"/><rect class="cls-13" x="63.98" y="39.48" width="22.89" height="2.41"/><path class="cls-14" d="M71.44,25.65h.49V22.82a2.86,2.86,0,0,1,3-2.62h1.09a2.86,2.86,0,0,1,3,2.62v2.83h.49V22.82a3.32,3.32,0,0,0-3.53-3.06H75a3.32,3.32,0,0,0-3.53,3.06Z"/><path class="cls-15" d="M79.8,24.14v2c0,.43-1.17.81-1.66.81v-3.6C78.63,23.33,79.8,23.7,79.8,24.14Z"/><path class="cls-15" d="M71.24,24.14v2c0,.43,1.16.81,1.65.81v-3.6C72.4,23.33,71.24,23.7,71.24,24.14Z"/><path class="cls-3" d="M50,24.44h-.28c-7.8,0-14.13-4.09-14.13-9.14v-.19c0-5,6.33-9.13,14.13-9.13H50c7.81,0,14.13,4.09,14.13,9.13v.19C64.1,20.35,57.78,24.44,50,24.44Z"/><path class="cls-3" d="M30.44,24.83a.38.38,0,0,1-.39-.36c0-.26,0-.51,0-.77a.39.39,0,0,1,.42-.34.38.38,0,0,1,.35.4c0,.23,0,.47,0,.71A.37.37,0,0,1,30.44,24.83Z"/><path class="cls-3" d="M30.7,22.67h-.09a.38.38,0,0,1-.28-.45,8.33,8.33,0,0,1,.49-1.43.38.38,0,0,1,.5-.2.36.36,0,0,1,.2.48,8.89,8.89,0,0,0-.44,1.32A.4.4,0,0,1,30.7,22.67ZM31.85,20a.41.41,0,0,1-.2-.06.35.35,0,0,1-.12-.5,9.07,9.07,0,0,1,.92-1.22.39.39,0,0,1,.54,0,.36.36,0,0,1,0,.52,9.17,9.17,0,0,0-.85,1.12A.4.4,0,0,1,31.85,20Zm2-2.2a.37.37,0,0,1-.25-.65,11.52,11.52,0,0,1,1.27-.89.39.39,0,0,1,.52.12.35.35,0,0,1-.12.51,9.45,9.45,0,0,0-1.17.82A.38.38,0,0,1,33.81,17.8Zm2.56-1.51a.38.38,0,0,1-.35-.23.36.36,0,0,1,.2-.48,10,10,0,0,1,1.5-.47.38.38,0,0,1,.46.27.36.36,0,0,1-.28.44,9.24,9.24,0,0,0-1.38.44A.4.4,0,0,1,36.37,16.29Z"/><path class="cls-3" d="M39.32,15.6a.37.37,0,1,1,0-.73c.26,0,.53,0,.8,0a.37.37,0,1,1,0,.73c-.25,0-.5,0-.74,0Z"/><path class="cls-3" d="M68.8,24.83a.37.37,0,0,1-.38-.36c0-.24,0-.48,0-.71a.38.38,0,0,1,.76-.06c0,.26,0,.51,0,.77A.37.37,0,0,1,68.8,24.83Z"/><path class="cls-3" d="M68.54,22.67a.39.39,0,0,1-.38-.29,7.9,7.9,0,0,0-.45-1.32.37.37,0,0,1,.21-.48.38.38,0,0,1,.5.2,9.29,9.29,0,0,1,.49,1.43.37.37,0,0,1-.29.45ZM67.38,20a.38.38,0,0,1-.32-.18,8.34,8.34,0,0,0-.86-1.12.37.37,0,0,1,0-.52.39.39,0,0,1,.54,0,9.07,9.07,0,0,1,.92,1.22.35.35,0,0,1-.13.5A.36.36,0,0,1,67.38,20Zm-1.95-2.2a.38.38,0,0,1-.25-.09A9.45,9.45,0,0,0,64,16.89a.37.37,0,0,1-.13-.51.41.41,0,0,1,.53-.12,12.56,12.56,0,0,1,1.27.89.36.36,0,0,1,0,.52A.37.37,0,0,1,65.43,17.8Zm-2.56-1.51-.15,0a9.62,9.62,0,0,0-1.38-.44.36.36,0,0,1-.28-.44.38.38,0,0,1,.46-.27,9.55,9.55,0,0,1,1.49.47.36.36,0,0,1,.21.48A.38.38,0,0,1,62.87,16.29Z"/><path class="cls-3" d="M59.92,15.6h0c-.25,0-.49,0-.74,0a.37.37,0,1,1,0-.73c.27,0,.53,0,.8,0a.37.37,0,0,1,.35.39A.37.37,0,0,1,59.92,15.6Z"/><path class="cls-3" d="M50,31.55a.37.37,0,0,1-.39-.37V29.71a.39.39,0,0,1,.77,0v1.47A.37.37,0,0,1,50,31.55Zm0-2.94a.38.38,0,0,1-.39-.37V26.77a.39.39,0,0,1,.77,0v1.47A.38.38,0,0,1,50,28.61Zm0-2.94a.38.38,0,0,1-.39-.37v-.83a.39.39,0,0,1,.77,0v.83A.38.38,0,0,1,50,25.67Z"/><path class="cls-1" d="M42.35,18.63H40.09a.18.18,0,0,1-.19-.19V12a.18.18,0,0,1,.19-.18h2.26a.18.18,0,1,1,0,.36H40.28v6.11h2.07a.18.18,0,0,1,.19.18A.18.18,0,0,1,42.35,18.63Z"/><path class="cls-1" d="M42.35,15.39H40.09a.18.18,0,0,1-.19-.18.19.19,0,0,1,.19-.19h2.26a.19.19,0,0,1,.19.19A.18.18,0,0,1,42.35,15.39Z"/><path class="cls-1" d="M46.65,15.64h-2a.18.18,0,0,1-.19-.18.18.18,0,0,1,.19-.19h2a.19.19,0,1,1,0,.37Z"/><path class="cls-1" d="M46.65,17.29h-2a.18.18,0,0,1-.19-.18.19.19,0,0,1,.19-.19h2a.2.2,0,0,1,.19.19A.19.19,0,0,1,46.65,17.29Z"/><path class="cls-1" d="M49.24,18.63a.19.19,0,0,1-.2-.19V14.83a.19.19,0,0,1,.2-.19.19.19,0,0,1,.19.19v3.61A.19.19,0,0,1,49.24,18.63Z"/><path class="cls-1" d="M51.4,18.63a.18.18,0,0,1-.19-.19V15.6a.63.63,0,0,0-.25-.5.71.71,0,0,0-.88,0l-.72.62a.2.2,0,0,1-.27,0,.18.18,0,0,1,0-.26l.72-.62a1.07,1.07,0,0,1,1.36,0,1,1,0,0,1,.4.79v2.84A.18.18,0,0,1,51.4,18.63Z"/><path class="cls-1" d="M53.65,18.63a.19.19,0,0,1-.19-.19V15.6a.63.63,0,0,0-.25-.5.71.71,0,0,0-.88,0l-.72.62a.2.2,0,0,1-.27,0,.18.18,0,0,1,0-.26l.72-.62a1.07,1.07,0,0,1,1.36,0,1,1,0,0,1,.4.79v2.84A.18.18,0,0,1,53.65,18.63Z"/><path class="cls-1" d="M56.35,18.63a1.21,1.21,0,0,1-1.25-1.18V15.76a1.24,1.24,0,0,1,2.48,0,.21.21,0,0,1-.19.21c-.11,0-.2-.06-.2-.16v-.05a.86.86,0,0,0-1.71,0v1.69a.86.86,0,0,0,1.71,0v-.34a.2.2,0,0,1,.2-.19.2.2,0,0,1,.19.19v.34A1.21,1.21,0,0,1,56.35,18.63Z"/><path class="cls-1" d="M60.34,15.42H58.77a.2.2,0,0,1-.18-.12.19.19,0,0,1,0-.2L60,13.81a.52.52,0,0,0,.17-.38v-.27a.58.58,0,0,0-1.15,0v.28a.19.19,0,0,1-.19.18.18.18,0,0,1-.19-.18v-.28a.93.93,0,0,1,.94-.91.94.94,0,0,1,1,.91v.27a.88.88,0,0,1-.28.64l-1,1h1.11a.19.19,0,0,1,.19.18A.2.2,0,0,1,60.34,15.42Z"/></g></g></svg>