<svg xmlns="http://www.w3.org/2000/svg" viewBox="0 0 98.42 77"><defs><style>.cls-1{fill:#333;}</style></defs><g id="Camada_2" data-name="Camada 2"><g id="Layer_2" data-name="Layer 2"><path class="cls-1" d="M43.5,2.38l10,2L65.08,6.68l11.53,2.2,10.08,1.87L93.82,12l2.71.47-2.69-.57-7.1-1.48-10-2L65.17,6.14,53.63,3.94,43.55,2.07,36.42.79,33.71.32,36.4.9Z"/><path class="cls-1" d="M59.5,40.4l8.24,2.92s-.59,4-.59,5.35a7.61,7.61,0,0,0,.44,2.44l6.9-6.66Z"/><polygon class="cls-1" points="61.9 52.24 47.81 46.56 13.93 51.59 14.38 58.41 12.88 60.35 61.9 52.24"/><path class="cls-1" d="M98.41,37.23a1.26,1.26,0,0,0-.18-.42,2.15,2.15,0,0,0-.43-.46,3,3,0,0,0-.43-.3l-6.48-6.3,1.36-1.44.15-.17h-.21L90.44,28l0-2.12,6.44-8L95.18,18l.15-1.14L76.89,39.26a9.15,9.15,0,0,0-.3,2.44v1.46L90.37,25.92l-.05,2.15v.06h.06l1.58.18-6.19,6.13-6.31,6.33L76.1,44.15A16.28,16.28,0,0,1,76,40.07c.13-.47.22-.86.3-1.15l21.29-26.1L75.68,38.07.52,16.17,33,0,0,15.81l.1.25a12.17,12.17,0,0,0,0,3.41,2.74,2.74,0,0,0,1.2,1.62L7,22.85c0,.76-.07,1.52,0,2.28a7.17,7.17,0,0,0,.07.81,4,4,0,0,0,.23.79A5.74,5.74,0,0,0,8,28.15v0H8l7.28,3.2,7.29,3.14,22.87,11-1.41.13c-1.55.13-3.1.28-4.65.44q-4.63.47-9.27,1c-3.09.35-6.18.75-9.27,1.12C18,48.63,15,49,12.09,49.41L11.74,45l-.43-5c-.15-1.66-.31-3.32-.47-5s-.33-3.32-.51-5c0,1.67.1,3.34.16,5,0,.18,0,.35,0,.53-1,.18-2,.43-3.06.68l-1.56.44-1.56.47-.74.22.53.64c.14.16.27.34.41.51l.4,6.59,7.5,9.58-.3-3.09-.88-1.07.48-.06c3.09-.34,6.18-.74,9.26-1.11s6.17-.8,9.26-1.23,6.16-.88,9.23-1.35c1.54-.23,3.08-.47,4.62-.73L47,45.55l1.14-.16L51.86,47l14.2,5.88a2.29,2.29,0,0,0,0,.25,21.49,21.49,0,0,1,0,2.18,17,17,0,0,1-.22,2.15c-.06.38-.11.67-.15.82l-.62.29c0-.14,0-.31,0-.5a19.2,19.2,0,0,0,0-2.21A19.68,19.68,0,0,0,65,53.63c-.09-.59-.18-1-.18-1s.06.4.1,1a16.9,16.9,0,0,1,0,2.18A19.33,19.33,0,0,1,64.75,58c-.06.37-.12.65-.15.81l-.63.29c0-.14,0-.31,0-.49a22,22,0,0,0,0-2.21,17.55,17.55,0,0,0-.22-2.19c-.09-.59-.18-1-.18-1s.06.4.1,1a16.9,16.9,0,0,1,0,2.18,19.33,19.33,0,0,1-.21,2.15c-.06.36-.11.64-.15.8l-.62.29c0-.14,0-.3,0-.48a17.34,17.34,0,0,0,0-2.21,17.55,17.55,0,0,0-.22-2.19c-.09-.59-.18-1-.18-1s.06.4.1,1a18.73,18.73,0,0,1,0,2.18,19.13,19.13,0,0,1-.22,2.15c-.06.35-.11.62-.14.79l-.63.29c0-.14,0-.3,0-.47a19.2,19.2,0,0,0,0-2.21c0-.81-.13-1.6-.22-2.19s-.19-1-.19-1,.06.4.11,1a21.49,21.49,0,0,1,0,2.18,19.13,19.13,0,0,1-.22,2.15c-.05.34-.1.61-.14.77l-.63.3c0-.14,0-.29,0-.46A19.2,19.2,0,0,0,60.59,58a19.93,19.93,0,0,0-.22-2.19c-.09-.59-.18-1-.18-1s.05.39.1,1a21.49,21.49,0,0,1,0,2.18,17,17,0,0,1-.22,2.15c0,.33-.1.59-.13.76l-.63.29c0-.13,0-.28,0-.44a22,22,0,0,0,0-2.21,19.93,19.93,0,0,0-.22-2.19c-.09-.59-.18-1-.18-1s.06.39.1,1a16.9,16.9,0,0,1,0,2.18A19.33,19.33,0,0,1,59,60.72c-.06.32-.1.58-.14.75l-.63.29c0-.13,0-.27,0-.43a22,22,0,0,0,0-2.21,17.75,17.75,0,0,0-.22-2.19c-.09-.59-.18-1-.18-1s.06.39.1,1A18.73,18.73,0,0,1,58,59.12c0,.79-.13,1.57-.22,2.15,0,.32-.1.57-.13.73l-.64.3c0-.13,0-.27,0-.42a17.34,17.34,0,0,0,0-2.21,17.75,17.75,0,0,0-.22-2.19c-.09-.59-.18-1-.18-1s.06.39.1,1a18.73,18.73,0,0,1,0,2.18,19.13,19.13,0,0,1-.22,2.15c0,.31-.1.56-.13.72l-.63.3c0-.12,0-.26,0-.41A19.2,19.2,0,0,0,56,60.22c0-.8-.13-1.6-.22-2.19s-.19-1-.19-1,.06.39.11,1a21.49,21.49,0,0,1,0,2.18,19.13,19.13,0,0,1-.22,2.15l-.12.71-.64.3c0-.12,0-.26,0-.4a19.2,19.2,0,0,0,0-2.21,19.93,19.93,0,0,0-.22-2.19c-.09-.59-.18-1-.18-1s.05.39.1,1a21.49,21.49,0,0,1,0,2.18,17,17,0,0,1-.22,2.15c0,.29-.09.53-.12.7l-.64.29c0-.11,0-.24,0-.38a22,22,0,0,0,0-2.21,19.93,19.93,0,0,0-.22-2.19c-.09-.59-.18-1-.18-1s.06.39.1,1a16.9,16.9,0,0,1,0,2.18,19.33,19.33,0,0,1-.21,2.15c-.05.28-.09.52-.13.68l-.63.3c0-.11,0-.24,0-.37a19.41,19.41,0,0,0,0-2.21,17.75,17.75,0,0,0-.22-2.19c-.09-.59-.18-1-.18-1s.06.39.1,1a18.73,18.73,0,0,1,0,2.18c0,.79-.13,1.57-.22,2.15l-.12.67-.64.3q0-.17,0-.36a17.34,17.34,0,0,0,0-2.21,20.14,20.14,0,0,0-.21-2.19c-.1-.59-.19-1-.19-1s.06.39.11,1a21.49,21.49,0,0,1,0,2.18,19.13,19.13,0,0,1-.22,2.15q-.06.41-.12.66l-.64.3c0-.11,0-.22,0-.35A19.2,19.2,0,0,0,50.17,63,19.93,19.93,0,0,0,50,60.78c-.1-.59-.18-1-.18-1s0,.39.1,1a21.49,21.49,0,0,1,0,2.18,17,17,0,0,1-.22,2.15c0,.26-.08.48-.11.65l-.64.3c0-.11,0-.22,0-.34a19.2,19.2,0,0,0,0-2.21,19.93,19.93,0,0,0-.22-2.19c-.09-.59-.18-1-.18-1s.06.39.1,1a18.92,18.92,0,0,1,0,2.18,17,17,0,0,1-.22,2.15c0,.26-.08.47-.11.63l-.64.3c0-.1,0-.2,0-.32a22,22,0,0,0,0-2.21,17.75,17.75,0,0,0-.22-2.19c-.09-.59-.18-1-.18-1s.06.39.1,1a16.9,16.9,0,0,1,0,2.18,19.33,19.33,0,0,1-.21,2.15c0,.25-.08.46-.11.62l-.65.3,0-.31a17.34,17.34,0,0,0,0-2.21,17.75,17.75,0,0,0-.22-2.19c-.09-.59-.18-1-.18-1s.06.39.1,1a18.73,18.73,0,0,1,0,2.18c0,.79-.13,1.57-.22,2.15,0,.24-.08.45-.11.61l-.64.3c0-.09,0-.19,0-.3a19.2,19.2,0,0,0,0-2.21c0-.8-.13-1.6-.22-2.19s-.19-1-.19-1,.06.39.11,1a21.49,21.49,0,0,1,0,2.18,19.13,19.13,0,0,1-.22,2.15c0,.24-.07.44-.1.6l-.65.3a2.64,2.64,0,0,0,0-.29,19.2,19.2,0,0,0,.05-2.21,19.93,19.93,0,0,0-.22-2.19c-.09-.59-.18-1-.18-1s.05.39.1,1a21.49,21.49,0,0,1,0,2.18,17,17,0,0,1-.22,2.15c0,.23-.07.43-.1.58l-.65.31,0-.28a22,22,0,0,0,0-2.21A19.93,19.93,0,0,0,43,64.08c-.09-.59-.18-1-.18-1s.06.39.1,1a16.9,16.9,0,0,1,0,2.18,19.33,19.33,0,0,1-.21,2.15c0,.23-.07.42-.1.57l-.65.3A2.46,2.46,0,0,1,42,69a22,22,0,0,0,0-2.21,17.75,17.75,0,0,0-.22-2.19c-.09-.59-.18-1-.18-1s.06.39.1,1a18.73,18.73,0,0,1,.05,2.18c0,.79-.13,1.57-.22,2.15,0,.22-.07.41-.1.56l-.65.3c0-.08,0-.16,0-.25a17.34,17.34,0,0,0,0-2.21,17.75,17.75,0,0,0-.22-2.19c-.09-.59-.18-1-.18-1s.06.39.1,1a18.73,18.73,0,0,1,0,2.18,19.13,19.13,0,0,1-.22,2.15c0,.21-.07.4-.09.55l-.66.3a1.94,1.94,0,0,0,0-.24,19.2,19.2,0,0,0,0-2.21c0-.8-.13-1.6-.22-2.19s-.19-1-.19-1,.06.39.11,1a21.49,21.49,0,0,1,0,2.18,19.13,19.13,0,0,1-.22,2.15c0,.21-.06.39-.09.53l-.65.31c0-.07,0-.15,0-.23a19.2,19.2,0,0,0,.05-2.21,19.93,19.93,0,0,0-.22-2.19c-.09-.59-.18-1-.18-1s.05.39.1,1a21.49,21.49,0,0,1,0,2.18,17,17,0,0,1-.22,2.15c0,.2-.06.38-.09.52l-.65.31a1.64,1.64,0,0,1,0-.22,22,22,0,0,0,0-2.21,19.93,19.93,0,0,0-.22-2.19c-.09-.59-.18-1-.18-1s.06.39.1,1a16.9,16.9,0,0,1,0,2.18A19.33,19.33,0,0,1,37,71.17q0,.3-.09.51l-.66.3c0-.06,0-.13,0-.2a22,22,0,0,0,0-2.21,17.75,17.75,0,0,0-.22-2.19c-.09-.59-.18-1-.18-1s.06.39.1,1A18.73,18.73,0,0,1,36,69.57c0,.79-.13,1.57-.22,2.15,0,.19-.06.36-.09.5l-.66.3a1.11,1.11,0,0,0,0-.19,17.34,17.34,0,0,0,0-2.21,17.75,17.75,0,0,0-.22-2.19c-.09-.59-.18-1-.18-1s.06.39.11,1a21.49,21.49,0,0,1,0,2.18,19.13,19.13,0,0,1-.22,2.15c0,.19-.06.35-.08.48l-.66.31c0-.06,0-.12,0-.18A19.2,19.2,0,0,0,34,70.67c0-.8-.13-1.6-.22-2.19s-.18-1-.18-1,0,.39.1,1a21.49,21.49,0,0,1,0,2.18,19.13,19.13,0,0,1-.22,2.15c0,.18,0,.34-.08.47l-.66.31a1,1,0,0,0,0-.17,19.2,19.2,0,0,0,0-2.21A19.93,19.93,0,0,0,32.58,69c-.09-.59-.18-1-.18-1s.06.39.1,1a18.92,18.92,0,0,1,0,2.18,17,17,0,0,1-.22,2.15c0,.17,0,.33-.07.46l-.67.31c0-.06,0-.11,0-.16a22,22,0,0,0,0-2.21,19.93,19.93,0,0,0-.22-2.19c-.09-.59-.18-1-.18-1s.06.39.1,1a16.9,16.9,0,0,1,0,2.18,19.33,19.33,0,0,1-.21,2.15c0,.17-.06.32-.08.44l-.22.11c-.09.14-.31.07-.63-.16A14.47,14.47,0,0,0,30.42,72a9.36,9.36,0,0,0-1.05-3.74l-7.2-8.59-3.6.32-1.8.49s11,14.27,11.85,15.73,2.55.33,2.55.33L89,48.67l-3.75.49-.49.23c0-.18,0-.42.07-.71,0-.06,0-.12,0-.17l12-1.95-1.65-1.62L95.8,39l.93-.27.48-.16.25-.1.28-.12a1.22,1.22,0,0,0,.58-.52,1,1,0,0,0,.1-.3A1.48,1.48,0,0,0,98.41,37.23Zm-92.26.33,1.51-.62c1-.42,1.92-.86,2.86-1.35.05,1.47.1,2.95.18,4.43l.24,5v.17c-.31-.48-.64-1-1-1.42s-.53-.76-.81-1.12-.55-.75-.83-1.11c-.56-.73-1.14-1.44-1.72-2.15-.41-.51-.85-1-1.27-1.51Zm.43,7.22V40.93c.36.42.72.84,1.09,1.25s.62.68.93,1,.63.66,1,1,.94.93,1.42,1.39L11.22,50l0,.5Zm60.7,9.94a19.13,19.13,0,0,1-.22,2.15c-.06.39-.12.68-.15.84l-.62.29c0-.15,0-.33,0-.52a19.2,19.2,0,0,0,0-2.21,19.68,19.68,0,0,0-.22-2.19c0-.07,0-.15,0-.22l.41.17-.06,0a1.64,1.64,0,0,0,.71.2h.09C67.29,53.67,67.3,54.19,67.28,54.72Zm1.16-.55c0,.79-.13,1.57-.22,2.15-.06.4-.13.7-.16.85l-.62.29c0-.15,0-.33,0-.53a19.2,19.2,0,0,0,.05-2.21c0-.53-.08-1-.13-1.52a2,2,0,0,0,.43-.06,2.51,2.51,0,0,0,.6-.21C68.45,53.32,68.45,53.74,68.44,54.17Zm-.75-2c-.9.18-2.23-.66-3.06-1l-3.77-1.59-8.63-3.64L37.55,39.86l-7.34-3-7.36-3-7.35-3L14,30.28l-1.83-.76.49.23L8.16,28a5.34,5.34,0,0,1-.76-1.31,4,4,0,0,1-.24-.74,6.82,6.82,0,0,1-.1-.79C7,24.37,7,23.62,7,22.86L75.88,44.37,73.16,47.1c-1.12,1.14-2.26,2.24-3.39,3.35-.28.26-.48.62-.75.89a4.87,4.87,0,0,1-.5.4A2.35,2.35,0,0,1,67.69,52.17Zm1.9,1.45a19.33,19.33,0,0,1-.21,2.15c-.07.41-.13.72-.16.86l-.62.29c0-.15,0-.33.05-.54a17.34,17.34,0,0,0,0-2.21c0-.46,0-.91-.1-1.32L69,52.6a5.15,5.15,0,0,0,.61-.53C69.61,52.55,69.62,53.08,69.59,53.62Zm1.16-.55a17,17,0,0,1-.22,2.15c-.06.42-.13.74-.16.87l-.61.29c0-.15,0-.34,0-.55a22,22,0,0,0,0-2.21c0-.59-.08-1.17-.14-1.67l.14-.15.78-.8.08-.08A18.39,18.39,0,0,1,70.75,53.07Zm1.16-.55a19.13,19.13,0,0,1-.22,2.15c-.07.44-.13.76-.16.89l-.62.28c0-.15,0-.34,0-.56A19.2,19.2,0,0,0,71,53.07a19.68,19.68,0,0,0-.22-2.19v0l1-1.07c0,.16,0,.35.05.57A21.43,21.43,0,0,1,71.91,52.52Zm2.32-1.1c0,.79-.13,1.57-.22,2.15s-.15.81-.17.91l-.61.29c0-.16,0-.36,0-.59a17.34,17.34,0,0,0,0-2.21c0-.55-.07-1.09-.13-1.57l1-.17C74.24,50.61,74.24,51,74.23,51.42Zm1.15-.55A19.33,19.33,0,0,1,75.17,53c-.08.49-.16.83-.18.93l-.61.28c0-.16,0-.37.06-.6a22,22,0,0,0,0-2.21c0-.42,0-.83-.09-1.21l1-.17A7.69,7.69,0,0,1,75.38,50.87Zm1.16-.55a17,17,0,0,1-.22,2.15c-.08.52-.16.87-.17.94l-.61.28c0-.16,0-.37.06-.61a22,22,0,0,0,0-2.21c0-.29,0-.58-.06-.86l1-.15C76.55,50,76.55,50.16,76.54,50.32Zm1.16-.55a19.13,19.13,0,0,1-.22,2.15c-.09.57-.17.94-.18.95l-.6.28c0-.16,0-.37,0-.62a19.2,19.2,0,0,0,0-2.21l0-.5.93-.15Zm.94,1.6c-.09.58-.18,1-.18,1h0l-.63.29c0-.17,0-.39.06-.64a19.2,19.2,0,0,0,0-2.21.71.71,0,0,1,0-.14l.89-.15C78.8,50.18,78.72,50.85,78.64,51.37Zm1.16-.55c-.09.58-.18,1-.18,1h0l-.64.3c0-.17,0-.39.06-.65,0-.55.07-1.26.05-2L80,49.3C79.93,49.86,79.86,50.39,79.8,50.82ZM81,50.27c-.1.58-.18.95-.18.95h0l-.65.31c0-.17,0-.4.06-.66,0-.46.06-1,0-1.63l.82-.13C81.06,49.54,81,49.94,81,50.27Zm1.15-.55c-.09.58-.18,1-.18,1l.07,0-.68.31c0-.17,0-.4.07-.67s0-.8,0-1.27l.78-.12C82.19,49.22,82.15,49.49,82.11,49.72Zm1.16-.55c-.09.58-.18.95-.18.95l.08,0-.69.33q0-.27.06-.69c0-.27,0-.58,0-.9l.74-.13Q83.3,49,83.27,49.17Zm1.16-.55c-.09.58-.18,1-.18,1l.1,0-.72.33c0-.18.05-.42.07-.7l0-.54.71-.11ZM96.92,37.46l-.11,0-1,.26a22.21,22.21,0,0,1-2.54.58c-2.55.38-5.11.84-7.66,1.29l-3.45.61L75.26,47.8l0-.1a.87.87,0,0,0,0,.11l-1,1.14c-.08-.43-.14-.7-.14-.7s0,.3.08.75l-1,1.12a3.07,3.07,0,0,0-.05-.34c-.09-.59-.18-1-.18-1s.06.4.11,1c0,.14,0,.28,0,.44l-.21.23.22,0c0,.48,0,1,0,1.55a19.13,19.13,0,0,1-.22,2.15c-.07.45-.14.78-.17.9l-.61.29c0-.16,0-.36.05-.58a19.2,19.2,0,0,0,0-2.21c0-.81-.13-1.6-.22-2.19,0-.23-.07-.43-.1-.59l1.89-2,6.18-6.47,6.18-6.48,4.78-5.08L92,31.09l-.62-.53L83.35,39.1l9.36-7.21.86,1,2,2.33c.28.33,1.72,1.65,1.66,2C97.18,37.34,97.05,37.41,96.92,37.46Z"/><path class="cls-1" d="M52.12,57.05c-.95.43-1.94.86-2.93,1.32l-3,1.39-3,1.43c-1,.46-2,1-2.89,1.41-1.88.92-3.62,1.8-5.1,2.57s-2.71,1.44-3.58,1.9-1.34.75-1.34.75.52-.19,1.42-.55,2.2-.87,3.73-1.52,3.32-1.41,5.22-2.26c1-.43,1.94-.86,2.93-1.32l3-1.39,3-1.42c1-.47,2-1,2.9-1.41,1.87-.92,3.61-1.8,5.1-2.57s2.71-1.45,3.57-1.9l1.35-.75-1.43.55c-.9.37-2.19.86-3.73,1.51S54,56.21,52.12,57.05Z"/></g></g></svg>