<svg xmlns="http://www.w3.org/2000/svg" viewBox="0 0 99.32 75.76"><defs><style>.cls-1{fill:#db3923;}.cls-2{fill:#29aae3;}.cls-3{fill:#004d68;}.cls-4{fill:#0098c1;}.cls-5{fill:#2382a3;}.cls-6{fill:#7ccae5;}.cls-7{fill:#196c91;}.cls-8{fill:#3ac0ef;}.cls-9{fill:#aacdc1;}.cls-10{fill:#e0e0e0;}.cls-11{fill:#bcfaff;}.cls-12{fill:#edf3f7;}</style></defs><g id="Camada_2" data-name="Camada 2"><g id="Layer_1" data-name="Layer 1"><path class="cls-1" d="M46.27,67.87h0c-.94,0-1.89,0-2.82-.1l.1-1.32c.9.07,1.82.1,2.72.1Zm2.87-.11L49,66.45c.91-.07,1.83-.17,2.74-.3l.22,1.3C51,67.59,50.08,67.69,49.14,67.76Zm-8.58-.3q-1.43-.21-2.82-.51l.33-1.29c.89.2,1.8.37,2.71.5Zm14.23-.53-.33-1.28c.9-.2,1.79-.44,2.65-.7l.44,1.25C56.65,66.48,55.73,66.72,54.79,66.93ZM35,66.23c-.9-.27-1.81-.58-2.69-.92l.54-1.22c.85.33,1.72.62,2.59.88Zm25.26-1-.54-1.22c.84-.32,1.68-.68,2.5-1.07l.64,1.18C62,64.57,61.12,64.94,60.24,65.28ZM29.68,64.19c-.84-.4-1.69-.83-2.5-1.3l.74-1.12c.78.44,1.59.86,2.41,1.25Zm35.66-1.33-.74-1.12c.77-.44,1.54-.92,2.29-1.43l.83,1.07C67,61.9,66.15,62.4,65.34,62.86ZM24.79,61.41c-.77-.52-1.53-1.07-2.25-1.64l.92-1c.69.56,1.42,1.09,2.17,1.59ZM70,59.73l-.92-1c.69-.55,1.37-1.14,2-1.74l1,.93C71.4,58.55,70.69,59.16,70,59.73ZM20.43,58q-1-.93-1.95-2l1.08-.86c.6.65,1.23,1.28,1.87,1.88ZM74,56l-1.08-.85c.6-.65,1.18-1.33,1.71-2l1.15.77C75.24,54.58,74.65,55.29,74,56Zm-57.32-2c-.56-.71-1.1-1.45-1.6-2.21L16.31,51c.48.73,1,1.44,1.54,2.12Zm60.69-2.26L76.18,51c.48-.73.94-1.48,1.35-2.23l1.27.59C78.37,50.12,77.89,50.9,77.39,51.66ZM13.7,49.39c-.44-.78-.84-1.59-1.21-2.41l1.31-.51c.35.79.74,1.57,1.16,2.32ZM80,46.91l-1.31-.5c.35-.79.67-1.6,1-2.4l1.35.4C80.7,45.25,80.37,46.09,80,46.91ZM11.49,44.48c-.29-.83-.55-1.69-.78-2.56l1.38-.31c.22.83.47,1.66.75,2.47Zm70.28-2.63-1.38-.31c.21-.82.39-1.67.53-2.51l1.4.21C82.18,40.11,82,41,81.77,41.85ZM10.15,39.31c-.15-.87-.26-1.76-.34-2.64l1.41-.11c.08.86.19,1.71.33,2.54Zm72.51-2.72-1.42-.1c.07-.85.11-1.71.11-2.56v-.14h1.42v.14C82.77,34.81,82.73,35.71,82.66,36.59ZM9.69,34v-.08c0-.87,0-1.73.11-2.58l1.41.1c-.07.81-.1,1.65-.1,2.48Zm71.54-2.78c-.07-.84-.19-1.7-.33-2.54l1.4-.21c.15.88.27,1.76.35,2.65ZM11.53,28.9l-1.41-.2c.15-.87.33-1.75.55-2.61l1.38.3C11.84,27.22,11.67,28.07,11.53,28.9Zm68.82-2.71c-.21-.83-.47-1.65-.75-2.47l1.34-.41c.3.85.57,1.71.79,2.56ZM12.79,23.93l-1.35-.41c.3-.84.63-1.68,1-2.5l1.31.5C13.39,22.31,13.08,23.12,12.79,23.93Zm65.84-2.6c-.35-.78-.74-1.56-1.16-2.32l1.26-.6c.44.79.84,1.6,1.21,2.41ZM14.89,19.19l-1.26-.59c.43-.8.9-1.58,1.4-2.33l1.21.69C15.76,17.68,15.31,18.43,14.89,19.19Zm61.22-2.4c-.48-.73-1-1.44-1.54-2.13l1.14-.77c.56.71,1.1,1.45,1.61,2.2Zm-58.34-2-1.15-.78c.55-.71,1.14-1.41,1.77-2.09l1.08.85C18.87,13.47,18.3,14.14,17.77,14.83Zm55.08-2.17c-.6-.65-1.24-1.28-1.88-1.87l1-.94c.67.62,1.33,1.27,2,2ZM21.34,10.93l-1-.93c.67-.63,1.38-1.24,2.1-1.81l.92,1C22.66,9.74,22,10.32,21.34,10.93Zm47.6-1.87c-.69-.55-1.42-1.08-2.17-1.58l.84-1.07c.77.52,1.53,1.07,2.25,1.64ZM25.51,7.59l-.83-1.06c.77-.53,1.57-1,2.37-1.49l.75,1.13C27,6.61,26.26,7.09,25.51,7.59Zm39-1.53c-.79-.45-1.6-.86-2.41-1.25l.64-1.17c.84.4,1.69.83,2.51,1.29ZM30.2,4.91l-.65-1.17c.84-.41,1.72-.79,2.6-1.13l.54,1.22C31.85,4.16,31,4.52,30.2,4.91ZM59.56,3.75c-.84-.32-1.72-.62-2.59-.88l.43-1.25c.91.27,1.82.58,2.7.91ZM35.27,2.93l-.44-1.25c.91-.27,1.83-.52,2.76-.73l.33,1.28C37,2.43,36.14,2.67,35.27,2.93Zm19-.74c-.88-.2-1.8-.36-2.7-.49L51.82.4c1,.13,1.89.3,2.82.5ZM40.63,1.73,40.4.43c.94-.14,1.9-.25,2.85-.32l.11,1.31C42.45,1.49,41.53,1.6,40.63,1.73Zm8.24-.32c-.88-.06-1.77-.09-2.64-.09L46.11,0h.12c.91,0,1.83,0,2.75.09Z"/><path class="cls-2" d="M45.86,26.64c0,11.59-10.12,21-22.59,21S.67,38.23.67,26.64s10.12-21,22.6-21S45.86,15.05,45.86,26.64Z"/><path class="cls-3" d="M23.27,48.25C10.44,48.25,0,38.55,0,26.64S10.44,5,23.27,5s23.26,9.7,23.26,21.61S36.09,48.25,23.27,48.25Zm0-42c-12.09,0-21.92,9.13-21.92,20.36S11.18,47,23.27,47s21.92-9.13,21.92-20.36S35.35,6.28,23.27,6.28Z"/><path class="cls-4" d="M23.27,5.66c12.47,0,22.59,9.39,22.59,21s-10.12,21-22.59,21Z"/><path class="cls-3" d="M23.27,48.25a.63.63,0,1,1,0-1.25c12.08,0,21.92-9.13,21.92-20.36S35.35,6.28,23.27,6.28a.63.63,0,1,1,0-1.25c12.82,0,23.26,9.7,23.26,21.61S36.09,48.25,23.27,48.25Z"/><ellipse class="cls-2" cx="23.27" cy="26.64" rx="12.46" ry="20.9"/><path class="cls-3" d="M23.27,48.17c-7.24,0-13.13-9.66-13.13-21.53S16,5.11,23.27,5.11,36.4,14.77,36.4,26.64,30.51,48.17,23.27,48.17Zm0-41.81c-6.5,0-11.79,9.1-11.79,20.28s5.29,20.28,11.79,20.28,11.78-9.1,11.78-20.28S29.76,6.36,23.27,6.36Z"/><path class="cls-4" d="M23.27,5.73c6.88,0,12.45,9.36,12.45,20.91s-5.57,20.9-12.45,20.9Z"/><path class="cls-3" d="M23.27,48.17a.63.63,0,1,1,0-1.25c6.49,0,11.78-9.1,11.78-20.28S29.76,6.36,23.27,6.36a.63.63,0,1,1,0-1.25c7.24,0,13.13,9.66,13.13,21.53S30.51,48.17,23.27,48.17Z"/><path class="cls-2" d="M.67,26.64h0Z"/><path class="cls-3" d="M45.86,27.26H.67A.65.65,0,0,1,0,26.64.64.64,0,0,1,.67,26H45.86a.64.64,0,0,1,.67.62A.65.65,0,0,1,45.86,27.26Z"/><path class="cls-2" d="M4.59,14.83h0Z"/><path class="cls-3" d="M41.94,15.45H4.59a.63.63,0,1,1,0-1.25H41.94a.63.63,0,1,1,0,1.25Z"/><path class="cls-2" d="M4.59,38.27h0Z"/><path class="cls-3" d="M41.94,38.9H4.59a.63.63,0,1,1,0-1.25H41.94a.63.63,0,1,1,0,1.25Z"/><path class="cls-2" d="M23.27,5.66v0Z"/><path class="cls-3" d="M23.27,48.25a.65.65,0,0,1-.68-.63v-42a.68.68,0,0,1,1.35,0v42A.65.65,0,0,1,23.27,48.25Z"/><rect class="cls-5" x="22.5" y="35.04" width="52.34" height="30.7"/><rect class="cls-6" x="25.72" y="38.02" width="45.91" height="24.73"/><polygon class="cls-7" points="84.12 75.76 13.22 75.76 22.5 65.74 74.84 65.74 84.12 75.76"/><polygon class="cls-3" points="73.71 67.27 23.64 67.27 21.51 70.75 75.83 70.75 73.71 67.27"/><polygon class="cls-3" points="43.9 71.88 43.49 74.23 53.86 74.23 53.45 71.88 43.9 71.88"/><rect class="cls-7" x="51.96" y="17.09" width="23.68" height="29.69"/><rect class="cls-8" x="54.03" y="18.3" width="21.61" height="27.35"/><rect class="cls-3" x="75.64" y="17.09" width="23.68" height="29.69"/><rect class="cls-2" x="75.64" y="18.3" width="21.61" height="27.35"/><path class="cls-9" d="M75.64,44c6.17-3.38,12.86.06,19,0V16.66c-6.17.05-12.86-3.38-19,0Z"/><path class="cls-10" d="M75.64,44c6.17-3.38,12.86.06,19,0V16.66c-6.17.05-12.86-3.38-19,0Z"/><path class="cls-3" d="M77.69,45.65H73.47A1.69,1.69,0,0,1,75.22,44h.72a1.69,1.69,0,0,1,1.75,1.63Z"/><rect class="cls-7" x="73.47" y="45.58" width="4.22" height="1.19"/><polygon class="cls-5" points="97.25 45.61 94.67 44.01 94.67 16.66 97.25 18.25 97.25 45.61"/><polygon class="cls-11" points="54.03 45.61 56.61 44.01 56.61 16.66 54.03 18.25 54.03 45.61"/><path class="cls-12" d="M75.64,44c-6.17-3.38-12.86.06-19,0V16.66c6.17.05,12.86-3.38,19,0Z"/><path class="cls-7" d="M58.8,42.17l-.07-.55c1.21-.13,2.45-.35,3.77-.58a38.75,38.75,0,0,1,6.89-.8,16.46,16.46,0,0,1,4.18.5l-.16.54a16.11,16.11,0,0,0-4-.48,38.66,38.66,0,0,0-6.77.79C61.28,41.82,60,42,58.8,42.17Z"/><path class="cls-7" d="M58.8,40.23l-.07-.56c1.24-.13,2.5-.35,3.83-.59a40.23,40.23,0,0,1,6.83-.79,15.9,15.9,0,0,1,4.18.52l-.17.54a15.51,15.51,0,0,0-4-.5,39.17,39.17,0,0,0-6.71.78C61.33,39.87,60.06,40.1,58.8,40.23Z"/><path class="cls-7" d="M58.8,38.28l-.07-.55c1.27-.13,2.55-.36,3.91-.6a39.41,39.41,0,0,1,6.75-.78,15.38,15.38,0,0,1,4.18.53l-.17.54a15,15,0,0,0-4-.51,38.47,38.47,0,0,0-6.64.77C61.44,37.91,60.09,38.15,58.8,38.28Z"/><path class="cls-7" d="M58.8,36.34l-.07-.56c1.29-.13,2.58-.35,4-.6a39.41,39.41,0,0,1,6.71-.78,14.74,14.74,0,0,1,4.19.56l-.18.53a14.57,14.57,0,0,0-4-.53,37.9,37.9,0,0,0-6.57.77C61.41,36,60.11,36.21,58.8,36.34Z"/><path class="cls-7" d="M58.8,34.4l-.07-.56c1.32-.13,2.63-.36,4-.61a38.6,38.6,0,0,1,6.63-.78,14.29,14.29,0,0,1,4.19.58l-.19.54a13.62,13.62,0,0,0-4-.55,37.44,37.44,0,0,0-6.51.76C61.53,34,60.14,34.26,58.8,34.4Z"/><path class="cls-7" d="M58.8,32.45l-.06-.55c1.34-.14,2.74-.38,4.09-.62a38,38,0,0,1,6.56-.77,13.56,13.56,0,0,1,4.19.6l-.19.53a13.29,13.29,0,0,0-4-.57,36.76,36.76,0,0,0-6.44.76C61.58,32.07,60.16,32.32,58.8,32.45Z"/><path class="cls-7" d="M58.8,30.51,58.74,30c1.37-.13,2.79-.38,4.16-.62a37.34,37.34,0,0,1,6.49-.77,13.57,13.57,0,0,1,4.2.62l-.2.53a12.88,12.88,0,0,0-4-.59,37.17,37.17,0,0,0-6.37.76C61.63,30.12,60.19,30.37,58.8,30.51Z"/><path class="cls-7" d="M58.8,28.57,58.74,28c1.39-.14,2.83-.39,4.21-.63a36.42,36.42,0,0,1,6.44-.76,13,13,0,0,1,4.2.64l-.21.52a12.47,12.47,0,0,0-4-.6,36.62,36.62,0,0,0-6.3.74C61.67,28.17,60.22,28.43,58.8,28.57Z"/><path class="cls-7" d="M58.8,26.62l-.06-.56c1.42-.13,2.88-.39,4.29-.64a37.44,37.44,0,0,1,6.36-.75,12.63,12.63,0,0,1,4.2.66l-.21.52a12.15,12.15,0,0,0-4-.62,36.06,36.06,0,0,0-6.23.74C61.72,26.22,60.25,26.48,58.8,26.62Z"/><path class="cls-7" d="M58.8,24.68l-.06-.56c1.45-.14,2.93-.4,4.36-.65a36.85,36.85,0,0,1,6.29-.74,12.4,12.4,0,0,1,4.21.67l-.22.53a11.6,11.6,0,0,0-4-.64,35.59,35.59,0,0,0-6.17.73C61.77,24.28,60.28,24.54,58.8,24.68Z"/><path class="cls-7" d="M58.8,22.73l-.06-.55c1.48-.14,3-.41,4.43-.66a36.18,36.18,0,0,1,6.22-.74,11.88,11.88,0,0,1,4.21.7l-.23.52a11.22,11.22,0,0,0-4-.66,36,36,0,0,0-6.1.73C61.82,22.33,60.31,22.59,58.8,22.73Z"/><path class="cls-7" d="M58.8,20.79l-.06-.56c1.51-.13,3-.4,4.5-.66a35.48,35.48,0,0,1,6.15-.73,11.58,11.58,0,0,1,4.21.71l-.23.52a11,11,0,0,0-4-.67,35.56,35.56,0,0,0-6,.72C61.87,20.38,60.33,20.65,58.8,20.79Z"/><path class="cls-7" d="M58.8,18.85l-.06-.56c1.54-.14,3.08-.41,4.57-.67a34.94,34.94,0,0,1,6.08-.73,11.18,11.18,0,0,1,4.22.74l-.24.51a10.75,10.75,0,0,0-4-.69,34.9,34.9,0,0,0-6,.72C61.92,18.43,60.36,18.7,58.8,18.85Z"/><path class="cls-7" d="M92.48,42.17c-1.23-.13-2.48-.35-3.81-.58a38.66,38.66,0,0,0-6.77-.79,16.05,16.05,0,0,0-4,.48l-.16-.54a16.4,16.4,0,0,1,4.18-.5,38.64,38.64,0,0,1,6.88.8c1.32.23,2.56.45,3.77.58Z"/><path class="cls-7" d="M92.48,40.23c-1.25-.13-2.52-.36-3.87-.59a38.43,38.43,0,0,0-6.71-.79,15.53,15.53,0,0,0-4,.5l-.17-.54a16,16,0,0,1,4.19-.52,40,40,0,0,1,6.81.79c1.35.24,2.61.46,3.84.59Z"/><path class="cls-7" d="M92.48,38.28c-1.28-.13-2.58-.36-4-.6a38.47,38.47,0,0,0-6.63-.77,15.1,15.1,0,0,0-4,.51l-.17-.54a15.51,15.51,0,0,1,4.19-.53,39.52,39.52,0,0,1,6.75.78c1.35.24,2.64.47,3.9.6Z"/><path class="cls-7" d="M92.48,36.34c-1.3-.13-2.61-.36-4-.61A38.48,38.48,0,0,0,81.9,35a14.46,14.46,0,0,0-4,.53L77.71,35a14.64,14.64,0,0,1,4.19-.56,38.83,38.83,0,0,1,6.68.78c1.39.25,2.69.47,4,.6Z"/><path class="cls-7" d="M92.48,34.4c-1.33-.14-2.72-.38-4.07-.62A37.66,37.66,0,0,0,81.9,33a13.74,13.74,0,0,0-4,.55L77.7,33a14.31,14.31,0,0,1,4.2-.58,38.25,38.25,0,0,1,6.61.78c1.41.25,2.73.48,4,.61Z"/><path class="cls-7" d="M92.48,32.45c-1.36-.13-2.77-.38-4.13-.62a37.21,37.21,0,0,0-6.45-.76,13.31,13.31,0,0,0-4,.57l-.19-.53a13.62,13.62,0,0,1,4.2-.6,37.79,37.79,0,0,1,6.55.77c1.42.25,2.76.48,4.1.62Z"/><path class="cls-7" d="M92.49,30.51c-1.4-.14-2.83-.39-4.22-.63a37.29,37.29,0,0,0-6.37-.76,12.88,12.88,0,0,0-4,.59l-.2-.53a13.52,13.52,0,0,1,4.2-.62,38.2,38.2,0,0,1,6.48.76c1.38.25,2.8.5,4.17.63Z"/><path class="cls-7" d="M92.49,28.57c-1.43-.14-2.88-.4-4.28-.64a36.13,36.13,0,0,0-6.31-.75,12.54,12.54,0,0,0-4,.6l-.21-.52a13,13,0,0,1,4.21-.64,36.68,36.68,0,0,1,6.41.75c1.4.25,2.84.5,4.24.64Z"/><path class="cls-7" d="M92.49,26.62c-1.45-.14-2.93-.4-4.35-.65a36.41,36.41,0,0,0-6.24-.74,12.21,12.21,0,0,0-4,.62l-.21-.52a12.65,12.65,0,0,1,4.21-.66,37.1,37.1,0,0,1,6.34.75c1.42.25,2.88.51,4.31.64Z"/><path class="cls-7" d="M92.49,24.68c-1.48-.14-3-.4-4.42-.66a35.7,35.7,0,0,0-6.17-.73,11.56,11.56,0,0,0-4,.64l-.22-.53a12.36,12.36,0,0,1,4.21-.67,36.62,36.62,0,0,1,6.28.74c1.44.25,2.92.51,4.37.65Z"/><path class="cls-7" d="M92.49,22.73c-1.51-.14-3-.4-4.49-.66a36.16,36.16,0,0,0-6.1-.73,11.28,11.28,0,0,0-4,.66l-.23-.52a11.9,11.9,0,0,1,4.22-.7,36.07,36.07,0,0,1,6.21.74c1.45.25,3,.52,4.44.66Z"/><path class="cls-7" d="M92.49,20.79c-1.54-.14-3.07-.41-4.55-.67a35.79,35.79,0,0,0-6-.72,11,11,0,0,0-4,.67l-.23-.52a11.6,11.6,0,0,1,4.22-.71,35.37,35.37,0,0,1,6.14.73c1.48.26,3,.53,4.51.66Z"/><path class="cls-7" d="M92.49,18.85c-1.57-.15-3.12-.42-4.62-.68a35.13,35.13,0,0,0-6-.72,10.71,10.71,0,0,0-4,.69l-.24-.51a11.18,11.18,0,0,1,4.22-.74,34.94,34.94,0,0,1,6.08.73c1.49.26,3,.53,4.57.67Z"/></g></g></svg>