<svg xmlns="http://www.w3.org/2000/svg" viewBox="0 0 101.73 59.02"><g id="Camada_2" data-name="Camada 2"><g id="BACKGROUND_1" data-name="BACKGROUND 1"><path d="M20.77,57.94C27,55,33.32,52.22,39.59,49.37l18.85-8.48C64.7,38,71,35.11,77,31.76q2.26-1.26,4.56-2.43c1.52-.82,3.07-1.57,4.6-2.35l9.28-4.54-.45.69a29.07,29.07,0,0,0-1.51-11,26.27,26.27,0,0,0-5.62-9.53l.7.13-4.7,1.93-4.67,2c-3.1,1.37-6.08,3-9.13,4.46S63.89,14,60.82,15.43s-6.13,2.87-9.19,4.34c-6.07,3-12.16,6-18,9.37-2.93,1.71-5.86,3.41-8.81,5.06s-5.91,3.31-8.84,5l.14-1.31a15.88,15.88,0,0,1,3.22,4.67,23.69,23.69,0,0,1,1.83,5.25,40.16,40.16,0,0,1,.7,5.46,14.12,14.12,0,0,1-.67,5.5.37.37,0,0,1-.48.23.39.39,0,0,1-.23-.46,14.41,14.41,0,0,0,.32-5.2,48.47,48.47,0,0,0-.92-5.23A21.88,21.88,0,0,0,18,43.24a15.6,15.6,0,0,0-3-4.14.82.82,0,0,1-.05-1.16.9.9,0,0,1,.19-.15q4.36-2.62,8.77-5.18l4.47-2.44,4.54-2.32C39,24.8,45,21.57,51,18.53q4.53-2.31,9.11-4.55c3-1.5,6.09-3,9.2-4.36s6.32-2.51,9.42-3.89L88,1.58a.62.62,0,0,1,.69.12v0a25.64,25.64,0,0,1,6.19,9.92,30.57,30.57,0,0,1,1.7,11.58.81.81,0,0,1-.43.69h0c-3,1.62-6.08,3.26-9.15,4.86s-6.19,3-9.36,4.41c-6.35,2.71-12.55,5.73-18.79,8.67l-9.36,4.41c-3.13,1.42-6.26,2.87-9.42,4.26-6.31,2.78-12.65,5.5-19,8.09a.36.36,0,0,1-.48-.2A.37.37,0,0,1,20.77,57.94Z"/><path d="M15.46,38.9c-2.44,2.37-4.74,4.87-7,7.44L1.74,54.1l-.53-1.64c1.69.37,3.35.78,5,1.2s3.32.84,5,1.3l9.87,2.71a.63.63,0,0,1,.44.77.64.64,0,0,1-.71.45c-3.39-.57-6.73-1.35-10.06-2.14l-5-1.2q-2.47-.6-5-1.14h0A1,1,0,0,1,0,53.23a1,1,0,0,1,.24-.46c2.31-2.51,4.54-5.12,6.9-7.62a71.41,71.41,0,0,1,7.55-7.1.57.57,0,0,1,.75.85Z"/><path d="M8.73,45.7a9.94,9.94,0,0,1,2.51,4.73,11,11,0,0,1,.29,2.68,10.24,10.24,0,0,1-.11,1.35l-.13.65s0,0,0,0a.66.66,0,0,0-.18-.27.66.66,0,0,0-.64-.09c-.31.16-.29.28-.32.34a.42.42,0,0,0,0,.23.63.63,0,0,0,.26.4.61.61,0,0,0,.42.09.66.66,0,0,0,.2-.07.61.61,0,0,1-.84-.24.62.62,0,0,1,.23-.85.75.75,0,0,1,.24-.08.66.66,0,0,1,.46.1.65.65,0,0,1,.29.46.81.81,0,0,1,0,.39.71.71,0,0,1-.42.47.72.72,0,0,1-.56,0,.83.83,0,0,1-.22-.14.9.9,0,0,1-.29-.55,1.24,1.24,0,0,1,0-.31l-.05-.61L9.68,53.2c-.1-.79-.22-1.57-.39-2.33A22.92,22.92,0,0,0,7.8,46.36h0a.59.59,0,0,1,.3-.77A.6.6,0,0,1,8.73,45.7Z"/><path d="M87.05,2.29a13.28,13.28,0,0,1,4-2.06,6.84,6.84,0,0,1,4.7.44c.34.2.73.35,1.11.53s.72.41,1.08.65a4.63,4.63,0,0,1,1.34,2c.14.37.3.73.47,1.08s.26.73.38,1.09l.36,1.09c.08.37.14.74.2,1.12a20.58,20.58,0,0,0,.38,2.22c.1.36.28.71.42,1.07a4,4,0,0,1,.22,1.12,27.09,27.09,0,0,1-.18,4.57c-.14.76-.23,1.54-.4,2.35a4.37,4.37,0,0,1-1.23,2.16,7.38,7.38,0,0,1-4.31,1.94.39.39,0,0,1-.44-.31.4.4,0,0,1,.18-.39,11.48,11.48,0,0,0,3.27-2.41c.38-.48.64-1,1-1.59a4,4,0,0,0,.68-1.91,9.26,9.26,0,0,0,0-2.1c-.06-.72-.16-1.43-.28-2.13a4.33,4.33,0,0,1,0-1.08,6.77,6.77,0,0,0,.07-1.1,7.57,7.57,0,0,0-.61-2.07c-.13-.34-.25-.67-.35-1l-.4-1-.39-1c-.17-.31-.35-.6-.54-.88a6.29,6.29,0,0,0-.62-.8,5.81,5.81,0,0,1-.52-.83c-.18-.26-.34-.56-.53-.85a3.11,3.11,0,0,0-.75-.65,4.93,4.93,0,0,0-3.9-.11c-1.35.34-2.56,1-4,1.5a.38.38,0,0,1-.47-.23A.37.37,0,0,1,87,2.32Z"/><path d="M91,5.54c-2.83,1.91-5.78,3.62-8.77,5.25s-6.08,3.05-9,4.71c-1.51.78-2.89,1.8-4.33,2.72a34,34,0,0,1-4.53,2.33C61.25,22,58.27,23.63,55.17,25c-1.56.68-3.1,1.4-4.6,2.21-.74.42-1.44.92-2.16,1.38a24.21,24.21,0,0,1-2.23,1.23C43.11,31.3,40,32.73,37,34.24c-1.53.73-3,1.59-4.46,2.47A41.28,41.28,0,0,1,28,39.05c-3.06,1.48-6.17,2.87-9.3,4.18h0a.37.37,0,0,1-.49-.2.38.38,0,0,1,.15-.47c2.9-1.81,5.87-3.45,8.87-5.05a45.18,45.18,0,0,1,4.58-2.25c1.57-.65,3.13-1.33,4.63-2.13,3-1.56,6-3.21,9-4.83a21.19,21.19,0,0,1,2.31-1.09c.79-.31,1.6-.58,2.38-.94,1.53-.74,3-1.57,4.48-2.43,2.94-1.71,6-3.18,8.95-4.88A33.4,33.4,0,0,1,68,16.59c1.57-.66,3.19-1.22,4.69-2,3-1.53,6-3.29,8.93-4.92s6-3.22,9-4.76h0a.39.39,0,0,1,.51.16A.38.38,0,0,1,91,5.54Z"/><path d="M95,14.94c-3,1.56-6.09,3.13-9.15,4.67s-6.2,2.93-9.22,4.57c-1.52.78-2.92,1.81-4.38,2.73a34,34,0,0,1-4.57,2.36c-3.11,1.46-6.1,3.14-9.22,4.58-1.57.71-3.12,1.45-4.62,2.28-.75.43-1.45.94-2.17,1.41a23.54,23.54,0,0,1-2.25,1.26c-3.08,1.51-6.19,3-9.26,4.52-1.55.74-3,1.62-4.5,2.5a39.82,39.82,0,0,1-4.6,2.35c-1.56.72-3.11,1.46-4.72,2.09s-3.22,1.27-4.86,1.81a.37.37,0,0,1-.47-.24.36.36,0,0,1,.18-.44h0l9.1-4.75a49.33,49.33,0,0,1,4.62-2.26,46,46,0,0,0,4.67-2.16c3-1.59,6-3.28,9-5A21.54,21.54,0,0,1,51,36.14c.8-.32,1.62-.61,2.39-1,1.54-.76,3-1.62,4.5-2.51,3-1.75,6-3.25,9-5a33,33,0,0,1,4.55-2.41c1.59-.67,3.23-1.23,4.76-2,3.08-1.51,6-3.26,9.12-4.79a92.75,92.75,0,0,1,9.43-4.22.38.38,0,0,1,.48.23.39.39,0,0,1-.18.46Z"/></g></g></svg>