<?xml version="1.0" encoding="UTF-8"?>
<svg xmlns="http://www.w3.org/2000/svg" xmlns:xlink="http://www.w3.org/1999/xlink" width="120pt" height="83pt" viewBox="0 0 120 83" version="1.1">
<g id="surface1">
<path style=" stroke:none;fill-rule:nonzero;fill:rgb(0%,0%,0%);fill-opacity:1;" d="M 24.5 81.480469 C 31.847656 77.347656 39.304688 73.4375 46.699219 69.429688 L 68.9375 57.503906 C 76.320312 53.441406 83.75 49.375 90.828125 44.664062 C 92.605469 43.484375 94.398438 42.34375 96.207031 41.246094 C 98 40.09375 99.828125 39.039062 101.632812 37.941406 L 112.582031 31.558594 L 112.050781 32.527344 C 112.296875 27.28125 111.691406 22.03125 110.269531 17.058594 C 108.882812 12.082031 106.621094 7.511719 103.640625 3.65625 L 104.464844 3.839844 L 98.921875 6.554688 L 93.414062 9.367188 C 89.753906 11.292969 86.238281 13.585938 82.640625 15.636719 C 79.042969 17.691406 75.363281 19.6875 71.742188 21.699219 C 68.121094 23.710938 64.511719 25.734375 60.902344 27.800781 C 53.742188 32.023438 46.558594 36.242188 39.671875 40.980469 C 36.214844 43.382812 32.757812 45.773438 29.277344 48.09375 C 25.796875 50.414062 22.304688 52.75 18.851562 55.128906 L 19.015625 53.285156 C 20.601562 55.183594 21.886719 57.410156 22.8125 59.851562 C 23.773438 62.203125 24.5 64.683594 24.972656 67.234375 C 25.394531 69.769531 25.671875 72.335938 25.796875 74.914062 C 25.964844 77.527344 25.695312 80.15625 25.007812 82.648438 C 24.988281 82.714844 24.960938 82.777344 24.921875 82.828125 C 24.882812 82.878906 24.835938 82.921875 24.78125 82.953125 C 24.730469 82.984375 24.671875 83 24.613281 83.003906 C 24.554688 83.007812 24.496094 82.996094 24.441406 82.972656 C 24.339844 82.921875 24.253906 82.828125 24.203125 82.710938 C 24.152344 82.589844 24.140625 82.453125 24.171875 82.324219 C 24.667969 79.933594 24.796875 77.457031 24.546875 75.011719 C 24.296875 72.539062 23.9375 70.082031 23.460938 67.65625 C 22.953125 65.277344 22.203125 62.976562 21.234375 60.808594 C 20.328125 58.648438 19.132812 56.683594 17.695312 54.988281 C 17.601562 54.882812 17.523438 54.761719 17.46875 54.625 C 17.417969 54.484375 17.386719 54.335938 17.378906 54.183594 C 17.375 54.035156 17.394531 53.882812 17.4375 53.738281 C 17.480469 53.597656 17.550781 53.464844 17.636719 53.355469 C 17.703125 53.273438 17.777344 53.203125 17.859375 53.144531 C 21.289062 50.6875 24.734375 48.257812 28.203125 45.859375 L 33.476562 42.429688 L 38.832031 39.164062 C 46.003906 34.875 53.082031 30.332031 60.160156 26.058594 C 63.722656 23.894531 67.304688 21.761719 70.90625 19.660156 C 74.445312 17.550781 78.089844 15.441406 81.757812 13.527344 C 85.425781 11.617188 89.210938 10 92.871094 8.058594 L 103.804688 2.222656 C 103.9375 2.148438 104.089844 2.125 104.234375 2.15625 C 104.378906 2.1875 104.511719 2.269531 104.617188 2.390625 C 107.921875 6.308594 110.417969 11.082031 111.921875 16.339844 C 113.460938 21.566406 114.140625 27.09375 113.925781 32.625 C 113.921875 32.828125 113.871094 33.023438 113.78125 33.191406 C 113.691406 33.363281 113.566406 33.503906 113.417969 33.597656 C 109.878906 35.875 106.246094 38.179688 102.625 40.429688 C 99.003906 42.679688 95.324219 44.648438 91.582031 46.632812 C 84.09375 50.445312 76.78125 54.691406 69.417969 58.824219 L 58.378906 65.027344 C 54.6875 67.023438 50.992188 69.0625 47.265625 71.019531 C 39.824219 74.929688 32.34375 78.753906 24.855469 82.394531 C 24.800781 82.421875 24.746094 82.4375 24.6875 82.4375 C 24.628906 82.4375 24.574219 82.425781 24.519531 82.398438 C 24.46875 82.371094 24.417969 82.332031 24.378906 82.285156 C 24.339844 82.234375 24.308594 82.175781 24.289062 82.113281 C 24.253906 81.996094 24.257812 81.867188 24.296875 81.75 C 24.335938 81.632812 24.40625 81.539062 24.5 81.480469 Z M 24.5 81.480469 "/>
<path style=" stroke:none;fill-rule:nonzero;fill:rgb(0%,0%,0%);fill-opacity:1;" d="M 18.238281 54.707031 C 15.359375 58.039062 12.644531 61.554688 9.980469 65.167969 L 2.050781 76.082031 L 1.425781 73.773438 C 3.421875 74.296875 5.378906 74.871094 7.324219 75.460938 C 9.273438 76.054688 11.242188 76.644531 13.222656 77.289062 L 24.867188 81.101562 C 25.054688 81.164062 25.214844 81.3125 25.3125 81.515625 C 25.410156 81.71875 25.4375 81.957031 25.386719 82.183594 C 25.332031 82.394531 25.21875 82.570312 25.066406 82.6875 C 24.910156 82.804688 24.726562 82.851562 24.546875 82.816406 C 20.546875 82.015625 16.609375 80.917969 12.679688 79.808594 L 6.78125 78.121094 C 4.839844 77.558594 2.875 77.023438 0.886719 76.515625 C 0.585938 76.433594 0.324219 76.210938 0.160156 75.902344 C -0.0078125 75.59375 -0.0625 75.21875 0 74.859375 C 0.046875 74.617188 0.144531 74.394531 0.285156 74.210938 C 3.007812 70.679688 5.636719 67.011719 8.421875 63.496094 C 11.183594 59.914062 14.160156 56.578125 17.328125 53.507812 C 17.464844 53.394531 17.628906 53.34375 17.792969 53.367188 C 17.960938 53.390625 18.113281 53.484375 18.222656 53.632812 C 18.332031 53.78125 18.390625 53.972656 18.390625 54.171875 C 18.386719 54.367188 18.324219 54.558594 18.214844 54.707031 Z M 18.238281 54.707031 "/>
<path style=" stroke:none;fill-rule:nonzero;fill:rgb(0%,0%,0%);fill-opacity:1;" d="M 10.296875 64.269531 C 11.777344 66.121094 12.800781 68.421875 13.257812 70.917969 C 13.503906 72.15625 13.617188 73.421875 13.601562 74.6875 C 13.59375 75.324219 13.550781 75.957031 13.472656 76.585938 L 13.316406 77.5 C 13.273438 77.355469 13.203125 77.226562 13.105469 77.121094 C 13 77.023438 12.875 76.960938 12.742188 76.941406 C 12.609375 76.917969 12.476562 76.9375 12.351562 76.996094 C 11.984375 77.21875 12.007812 77.390625 11.972656 77.472656 C 11.949219 77.578125 11.949219 77.691406 11.972656 77.796875 C 12.007812 78.023438 12.121094 78.226562 12.28125 78.359375 C 12.425781 78.472656 12.601562 78.515625 12.773438 78.484375 C 12.859375 78.46875 12.9375 78.433594 13.011719 78.386719 C 12.925781 78.445312 12.835938 78.480469 12.742188 78.496094 C 12.644531 78.507812 12.546875 78.5 12.457031 78.46875 C 12.363281 78.4375 12.277344 78.382812 12.203125 78.3125 C 12.128906 78.238281 12.066406 78.152344 12.019531 78.050781 C 11.972656 77.949219 11.941406 77.839844 11.929688 77.726562 C 11.914062 77.613281 11.921875 77.496094 11.945312 77.382812 C 11.972656 77.273438 12.015625 77.167969 12.074219 77.078125 C 12.132812 76.988281 12.207031 76.910156 12.292969 76.855469 C 12.378906 76.796875 12.476562 76.761719 12.574219 76.742188 C 12.765625 76.707031 12.957031 76.757812 13.117188 76.882812 C 13.210938 76.953125 13.289062 77.050781 13.347656 77.160156 C 13.40625 77.273438 13.445312 77.398438 13.460938 77.53125 C 13.496094 77.710938 13.496094 77.898438 13.460938 78.078125 C 13.425781 78.226562 13.363281 78.363281 13.277344 78.476562 C 13.191406 78.59375 13.082031 78.683594 12.964844 78.738281 C 12.859375 78.792969 12.746094 78.820312 12.632812 78.820312 C 12.519531 78.820312 12.40625 78.792969 12.304688 78.738281 C 12.207031 78.691406 12.121094 78.625 12.042969 78.542969 C 11.855469 78.339844 11.734375 78.066406 11.703125 77.769531 C 11.6875 77.625 11.6875 77.476562 11.703125 77.332031 L 11.644531 76.476562 L 11.417969 74.816406 C 11.300781 73.703125 11.160156 72.609375 10.957031 71.539062 C 10.558594 69.359375 9.96875 67.230469 9.199219 65.195312 C 9.128906 64.996094 9.125 64.769531 9.191406 64.570312 C 9.257812 64.367188 9.390625 64.203125 9.554688 64.113281 C 9.679688 64.054688 9.8125 64.035156 9.945312 64.0625 C 10.078125 64.089844 10.199219 64.160156 10.296875 64.269531 Z M 10.296875 64.269531 "/>
<path style=" stroke:none;fill-rule:nonzero;fill:rgb(0%,0%,0%);fill-opacity:1;" d="M 102.683594 3.222656 C 104.105469 1.941406 105.703125 0.960938 107.402344 0.324219 C 109.253906 -0.261719 111.21875 -0.0429688 112.945312 0.941406 C 113.347656 1.222656 113.808594 1.433594 114.253906 1.6875 C 114.703125 1.941406 115.105469 2.265625 115.527344 2.601562 C 116.253906 3.355469 116.800781 4.328125 117.109375 5.414062 C 117.273438 5.933594 117.464844 6.441406 117.664062 6.933594 C 117.863281 7.425781 117.972656 7.960938 118.113281 8.464844 L 118.539062 10 C 118.632812 10.519531 118.703125 11.039062 118.773438 11.574219 C 118.875 12.625 119.023438 13.667969 119.222656 14.695312 C 119.339844 15.203125 119.550781 15.695312 119.71875 16.199219 C 119.867188 16.707031 119.953125 17.238281 119.976562 17.777344 C 120.058594 19.921875 119.988281 22.070312 119.765625 24.203125 C 119.597656 25.273438 119.492188 26.367188 119.292969 27.507812 C 119.066406 28.667969 118.5625 29.722656 117.839844 30.546875 C 116.441406 32.09375 114.65625 33.054688 112.757812 33.273438 C 112.640625 33.292969 112.519531 33.261719 112.425781 33.179688 C 112.328125 33.097656 112.261719 32.976562 112.238281 32.835938 C 112.226562 32.730469 112.238281 32.625 112.277344 32.527344 C 112.316406 32.429688 112.375 32.347656 112.449219 32.289062 C 113.894531 31.441406 115.199219 30.292969 116.308594 28.898438 C 116.757812 28.226562 117.0625 27.492188 117.488281 26.664062 C 117.945312 25.867188 118.21875 24.941406 118.289062 23.976562 C 118.382812 22.996094 118.382812 22.007812 118.289062 21.023438 C 118.21875 20.011719 118.101562 19.011719 117.957031 18.027344 C 117.90625 17.523438 117.90625 17.015625 117.957031 16.511719 C 118.023438 16 118.050781 15.480469 118.042969 14.964844 C 117.921875 13.957031 117.679688 12.976562 117.320312 12.050781 C 117.167969 11.574219 117.027344 11.109375 116.910156 10.644531 L 116.4375 9.238281 L 115.976562 7.832031 C 115.777344 7.398438 115.566406 6.988281 115.339844 6.597656 C 115.125 6.199219 114.878906 5.820312 114.609375 5.472656 C 114.378906 5.101562 114.171875 4.710938 113.996094 4.304688 C 113.785156 3.9375 113.59375 3.515625 113.371094 3.109375 C 113.117188 2.75 112.820312 2.441406 112.484375 2.195312 C 111.769531 1.796875 110.988281 1.578125 110.199219 1.550781 C 109.410156 1.523438 108.621094 1.691406 107.886719 2.039062 C 106.292969 2.519531 104.867188 3.445312 103.167969 4.148438 C 103.058594 4.191406 102.941406 4.179688 102.835938 4.121094 C 102.730469 4.058594 102.652344 3.953125 102.613281 3.824219 C 102.570312 3.742188 102.546875 3.640625 102.550781 3.542969 C 102.550781 3.441406 102.578125 3.34375 102.625 3.261719 Z M 102.683594 3.222656 "/>
<path style=" stroke:none;fill-rule:nonzero;fill:rgb(0%,0%,0%);fill-opacity:1;" d="M 107.34375 7.789062 C 104.003906 10.476562 100.523438 12.882812 97 15.175781 C 93.472656 17.464844 89.824219 19.464844 86.382812 21.796875 C 84.601562 22.894531 82.972656 24.328125 81.273438 25.621094 C 79.5625 26.871094 77.777344 27.96875 75.929688 28.898438 C 72.25 30.9375 68.734375 33.230469 65.078125 35.15625 C 63.238281 36.113281 61.421875 37.125 59.652344 38.265625 C 58.777344 38.855469 57.953125 39.558594 57.105469 40.207031 C 56.253906 40.835938 55.375 41.414062 54.472656 41.9375 C 50.851562 44.015625 47.183594 46.027344 43.644531 48.152344 C 41.839844 49.179688 40.105469 50.386719 38.382812 51.625 C 36.65625 52.851562 34.867188 53.953125 33.027344 54.917969 C 29.417969 56.996094 25.75 58.953125 22.058594 60.792969 C 22.003906 60.820312 21.949219 60.835938 21.890625 60.835938 C 21.832031 60.839844 21.773438 60.824219 21.71875 60.800781 C 21.667969 60.773438 21.617188 60.734375 21.574219 60.683594 C 21.535156 60.636719 21.503906 60.578125 21.480469 60.511719 C 21.4375 60.394531 21.433594 60.265625 21.464844 60.144531 C 21.5 60.023438 21.566406 59.917969 21.65625 59.851562 C 25.078125 57.308594 28.582031 55 32.121094 52.75 C 33.871094 51.574219 35.671875 50.519531 37.523438 49.585938 C 39.375 48.671875 41.214844 47.714844 42.984375 46.589844 C 46.523438 44.398438 50.0625 42.078125 53.601562 39.796875 C 54.484375 39.222656 55.390625 38.710938 56.324219 38.265625 C 57.257812 37.828125 58.214844 37.449219 59.132812 36.945312 C 60.9375 35.902344 62.671875 34.734375 64.417969 33.527344 C 67.886719 31.121094 71.496094 29.054688 74.976562 26.664062 C 76.648438 25.398438 78.398438 24.28125 80.210938 23.332031 C 82.0625 22.402344 83.976562 21.613281 85.746094 20.519531 C 89.285156 18.367188 92.820312 15.890625 96.277344 13.597656 C 99.734375 11.308594 103.355469 9.070312 106.894531 6.90625 C 107 6.84375 107.121094 6.832031 107.234375 6.875 C 107.34375 6.917969 107.4375 7.007812 107.496094 7.128906 C 107.539062 7.242188 107.546875 7.371094 107.519531 7.492188 C 107.492188 7.613281 107.429688 7.71875 107.34375 7.789062 Z M 107.34375 7.789062 "/>
<path style=" stroke:none;fill-rule:nonzero;fill:rgb(0%,0%,0%);fill-opacity:1;" d="M 112.0625 21.011719 C 108.523438 23.203125 104.878906 25.410156 101.269531 27.578125 C 97.660156 29.742188 93.953125 31.699219 90.390625 34.003906 C 88.597656 35.101562 86.949219 36.550781 85.226562 37.84375 C 83.5 39.109375 81.699219 40.21875 79.835938 41.164062 C 76.167969 43.214844 72.640625 45.578125 68.960938 47.601562 C 67.105469 48.601562 65.277344 49.640625 63.507812 50.808594 C 62.625 51.414062 61.800781 52.132812 60.949219 52.792969 C 60.09375 53.441406 59.207031 54.03125 58.296875 54.566406 C 54.664062 56.6875 50.992188 58.785156 47.371094 60.921875 C 45.542969 61.960938 43.832031 63.199219 42.0625 64.4375 C 40.316406 65.675781 38.503906 66.78125 36.636719 67.742188 C 34.796875 68.753906 32.96875 69.792969 31.070312 70.679688 C 29.171875 71.566406 27.273438 72.464844 25.335938 73.226562 C 25.28125 73.246094 25.226562 73.257812 25.167969 73.25 C 25.109375 73.246094 25.054688 73.226562 25 73.195312 C 24.949219 73.164062 24.902344 73.121094 24.867188 73.070312 C 24.828125 73.015625 24.800781 72.953125 24.785156 72.886719 C 24.75 72.773438 24.753906 72.644531 24.792969 72.53125 C 24.832031 72.417969 24.902344 72.324219 24.996094 72.269531 L 35.730469 65.589844 C 37.5 64.417969 39.316406 63.355469 41.179688 62.410156 C 43.0625 61.523438 44.902344 60.507812 46.6875 59.375 C 50.226562 57.136719 53.765625 54.761719 57.304688 52.34375 C 58.230469 51.765625 59.183594 51.257812 60.160156 50.824219 C 61.101562 50.375 62.070312 49.964844 62.980469 49.417969 C 64.796875 48.347656 66.515625 47.140625 68.285156 45.886719 C 71.824219 43.425781 75.363281 41.316406 78.902344 38.855469 C 80.617188 37.5625 82.410156 36.429688 84.269531 35.46875 C 86.144531 34.523438 88.082031 33.738281 89.886719 32.65625 C 93.519531 30.53125 96.960938 28.070312 100.644531 25.917969 C 104.253906 23.695312 107.96875 21.714844 111.765625 19.984375 C 111.878906 19.9375 112 19.945312 112.105469 20.007812 C 112.210938 20.066406 112.292969 20.175781 112.332031 20.308594 C 112.363281 20.425781 112.363281 20.558594 112.324219 20.675781 C 112.285156 20.792969 112.214844 20.890625 112.121094 20.953125 Z M 112.0625 21.011719 "/>
</g>
</svg>
