<svg xmlns="http://www.w3.org/2000/svg" viewBox="0 0 100 100"><g id="Camada_2" data-name="Camada 2"><g id="OBJECTS"><path d="M98.19,11.41,86.47,17.27,83.85,12,95.57,6.17Z"/><path d="M95.57,58.29,83.85,52.43l2.62-5.24,11.72,5.86Z"/><path d="M88.09,29.3H100v5.86H88.09Z"/><path d="M4.44,6.17,16.15,12l-2.62,5.24L1.82,11.41Z"/><path d="M4.43,58.28,1.81,53l11.72-5.86,2.62,5.25Z"/><path d="M0,29.3H11.91v5.86H0Z"/><path d="M41.21,94.14H58.79V100H41.21Z"/><path d="M82.23,32.23A32.23,32.23,0,1,0,35.35,60.89v9.42H29.49v5.86h5.86V88.28h29.3V76.17h5.86V70.31H64.65V60.89A32.24,32.24,0,0,0,82.23,32.23ZM58.79,82.42H41.21V76.17H58.79ZM47.07,38.09A2.93,2.93,0,1,1,50,41,2.93,2.93,0,0,1,47.07,38.09Zm5.86,32.22V46.37a8.79,8.79,0,1,0-5.86,0V70.31H41.21V57.13l-1.75-.77a26.37,26.37,0,1,1,21.08,0l-1.75.77V70.31Z"/></g></g></svg>