<svg xmlns="http://www.w3.org/2000/svg" viewBox="0 0 99.32 98.33"><defs><style>.cls-1{fill:#bcfaff;}.cls-2{fill:#9b5107;}.cls-3{fill:#05a2cc;}.cls-4{fill:#02331e;}.cls-5{fill:#004d68;}.cls-6{fill:#46bad4;}.cls-7{fill:#22a5b2;}.cls-8{fill:#d07100;}.cls-9{fill:#eeca93;}.cls-10{fill:#3ac0ef;}.cls-11{fill:#f2feff;}.cls-12{fill:#f9c478;}.cls-13{fill:#f4b867;}.cls-14{fill:#ffc988;}.cls-15{fill:#355c4b;}.cls-16{fill:#af5f17;}.cls-17{fill:#bf6d2b;}</style></defs><g id="Camada_2" data-name="Camada 2"><g id="Layer_1" data-name="Layer 1"><path class="cls-1" d="M35.37,18.83c0,10.4-7.91,18.83-17.68,18.83S0,29.23,0,18.83,7.92,0,17.69,0,35.37,8.43,35.37,18.83Z"/><path class="cls-2" d="M12.19,31.89h1.73v-5a8.55,8.55,0,0,1-1.73-.32Z"/><path class="cls-2" d="M10.24,31.89a.66.66,0,0,0,0,1.32h5.63a.66.66,0,0,0,0-1.32H10.24Z"/><path class="cls-3" d="M15.09,21.38l-.36-5.9-1.46-.88a1,1,0,0,1-.33-1.26A.84.84,0,0,1,14.12,13l.34.2c-.13-.38-.32-.72-.59-.69l-1.46-.41c-.52,0-1.36,2-1.39,2.38a41.26,41.26,0,0,0,.18,6.91h3.89Z"/><path class="cls-4" d="M23,30.82H20.78l.15,1.05a1.14,1.14,0,0,0,1.1,1h.16a1.18,1.18,0,0,0,.94-1.35Z"/><path class="cls-5" d="M21.89,22.39a1.12,1.12,0,0,0-1.1-1H11.2c.07.56,0,2.34,1.52,2.37h7.11l1,7.07H23Z"/><rect class="cls-4" x="21.08" y="19.29" width="13.5" height="1.69"/><polygon class="cls-6" points="29.86 18.04 30.09 18.04 30.09 19.1 30.09 19.1 32.15 11.56 31.67 11.42 29.86 18.04"/><polygon class="cls-7" points="29.86 18.04 22.71 18.04 22.71 19.1 30.09 19.1 30.09 19.1 30.09 18.04 29.86 18.04"/><path class="cls-8" d="M16.05,24.72c-2.43.32-4.25-.2-5.41-1.55C8,20.09,9.25,13.61,9.26,13.55a1.06,1.06,0,0,0-.76-1.26,1,1,0,0,0-1.17.81c-.07.31-1.5,7.6,1.85,11.49a6.32,6.32,0,0,0,3,2,8.55,8.55,0,0,0,1.73.32c.26,0,.52,0,.79,0a11,11,0,0,0,1.58-.11,1,1,0,0,0,.86-1.17A1,1,0,0,0,16.05,24.72Z"/><path class="cls-9" d="M12.38,7.26a1.07,1.07,0,0,0-.14.16Z"/><path class="cls-9" d="M13.52,8.69c-1.3-.46-1.59,1.16-1.51,1.91a2,2,0,0,0,1.26,1.47,1.63,1.63,0,0,0,.3.07h0c1,.17,1.71-.39,2.25-1.83a11.31,11.31,0,0,0,.26-1.11s0-.07,0-.1l-.09,0A6.38,6.38,0,0,1,13.52,8.69Z"/><path class="cls-2" d="M12.08,10.89A.81.81,0,0,1,12,10.6c-.08-.75.21-2.37,1.51-1.91A6.38,6.38,0,0,0,16,9.14l.09,0a3.45,3.45,0,0,0,.7-.52s-.51-.11-.58-.41A2.28,2.28,0,0,0,14,6.32a1.85,1.85,0,0,0-1.58.94h0l-.14.16a3.85,3.85,0,0,0-.75,1.33A2.89,2.89,0,0,0,12.08,10.89Z"/><path class="cls-9" d="M23.57,18a.93.93,0,0,0,0-1.85h-1V18Z"/><path class="cls-3" d="M12.94,13.34a1,1,0,0,0,.33,1.26l1.46.88L19,18h3.57V16.18H19.44l-5-3-.34-.2A.84.84,0,0,0,12.94,13.34Z"/><path class="cls-1" d="M99.32,18.83c0,10.4-7.92,18.83-17.69,18.83S64,29.23,64,18.83,71.86,0,81.63,0,99.32,8.43,99.32,18.83Z"/><path class="cls-2" d="M89.17,31.89H87.44v-5a8.43,8.43,0,0,0,1.73-.32Z"/><path class="cls-2" d="M91.12,31.89a.66.66,0,0,1,0,1.32H85.49a.66.66,0,0,1,0-1.32h5.63Z"/><path class="cls-3" d="M86.27,21.38l.36-5.9,1.46-.88a1,1,0,0,0,.33-1.26A.84.84,0,0,0,87.24,13l-.33.2c.12-.38.32-.72.58-.69L89,12.09c.53,0,1.37,2,1.39,2.38a40.19,40.19,0,0,1-.18,6.91H86.27Z"/><path class="cls-4" d="M78.33,30.82h2.25l-.14,1.05a1.15,1.15,0,0,1-1.11,1h-.16a1.19,1.19,0,0,1-.94-1.35Z"/><path class="cls-5" d="M79.47,22.39a1.14,1.14,0,0,1,1.1-1h9.59c-.06.56,0,2.34-1.51,2.37H81.54l-1,7.07H78.33Z"/><rect class="cls-4" x="66.79" y="19.29" width="13.5" height="1.69"/><polygon class="cls-6" points="71.5 18.04 71.27 18.04 71.27 19.1 71.27 19.1 69.21 11.56 69.69 11.42 71.5 18.04"/><polygon class="cls-7" points="71.5 18.04 78.65 18.04 78.65 19.1 71.27 19.1 71.27 19.1 71.27 18.04 71.5 18.04"/><path class="cls-8" d="M85.31,24.72c2.43.32,4.25-.2,5.41-1.55,2.66-3.08,1.39-9.56,1.38-9.62a1.08,1.08,0,0,1,.76-1.26A1,1,0,0,1,94,13.1c.06.31,1.49,7.6-1.85,11.49a6.35,6.35,0,0,1-3,2,8.43,8.43,0,0,1-1.73.32q-.39,0-.78,0a11,11,0,0,1-1.59-.11,1,1,0,0,1-.86-1.17A1,1,0,0,1,85.31,24.72Z"/><path class="cls-9" d="M89,7.26a1,1,0,0,1,.13.16Z"/><path class="cls-9" d="M87.84,8.69c1.3-.46,1.59,1.16,1.51,1.91a2,2,0,0,1-1.26,1.47,1.46,1.46,0,0,1-.3.07h0c-1,.17-1.72-.39-2.26-1.83a9.42,9.42,0,0,1-.25-1.11.34.34,0,0,1,0-.1l.09,0A6.31,6.31,0,0,0,87.84,8.69Z"/><path class="cls-2" d="M89.28,10.89a.81.81,0,0,0,.07-.29c.08-.75-.21-2.37-1.51-1.91a6.31,6.31,0,0,1-2.5.45l-.09,0a3.32,3.32,0,0,1-.71-.52s.51-.11.58-.41A2.28,2.28,0,0,1,87.4,6.32,1.87,1.87,0,0,1,89,7.26h0l.13.16a3.85,3.85,0,0,1,.76,1.33A2.92,2.92,0,0,1,89.28,10.89Z"/><path class="cls-9" d="M77.79,18a.93.93,0,0,1,0-1.85h1V18Z"/><path class="cls-3" d="M88.42,13.34a1,1,0,0,1-.33,1.26l-1.46.88L82.38,18H78.82V16.18h3.1l5-3,.33-.2A.84.84,0,0,1,88.42,13.34Z"/><path class="cls-1" d="M35.37,79.5c0,10.4-7.91,18.83-17.68,18.83S0,89.9,0,79.5,7.92,60.67,17.69,60.67,35.37,69.1,35.37,79.5Z"/><path class="cls-2" d="M12.19,91.26h1.73v-5a7.91,7.91,0,0,1-1.73-.33Z"/><path class="cls-2" d="M10.24,91.26a.66.66,0,0,0,0,1.31h5.63a.66.66,0,0,0,0-1.31H10.24Z"/><path class="cls-3" d="M15.09,80.74l-.36-5.9L13.27,74a1,1,0,0,1-.33-1.25.84.84,0,0,1,1.18-.36l.34.21c-.13-.39-.32-.72-.59-.7l-1.46-.41c-.52,0-1.36,2-1.39,2.39a41.13,41.13,0,0,0,.18,6.9h3.89Z"/><path class="cls-4" d="M23,90.18H20.78l.15,1.06a1.13,1.13,0,0,0,1.1,1h.16a1.17,1.17,0,0,0,.94-1.34Z"/><path class="cls-5" d="M21.89,81.76a1.13,1.13,0,0,0-1.1-1H11.2c.07.57,0,2.35,1.52,2.38h7.11l1,7.06H23Z"/><rect class="cls-4" x="21.08" y="78.65" width="13.5" height="1.69"/><polygon class="cls-6" points="29.86 77.41 30.09 77.41 30.09 78.47 30.09 78.47 32.15 70.93 31.67 70.78 29.86 77.41"/><polygon class="cls-7" points="29.86 77.41 22.71 77.41 22.71 78.47 30.09 78.47 30.09 78.47 30.09 77.41 29.86 77.41"/><path class="cls-8" d="M16.05,84.08c-2.43.33-4.25-.19-5.41-1.54C8,79.45,9.25,73,9.26,72.91a1,1,0,0,0-.76-1.25,1,1,0,0,0-1.17.81c-.07.31-1.5,7.6,1.85,11.49a6.38,6.38,0,0,0,3,2,7.91,7.91,0,0,0,1.73.33c.26,0,.52,0,.79,0a12.6,12.6,0,0,0,1.58-.11A1,1,0,0,0,17.15,85,1,1,0,0,0,16.05,84.08Z"/><path class="cls-9" d="M12.38,66.62l-.14.16Z"/><path class="cls-9" d="M13.52,68.06c-1.3-.46-1.59,1.16-1.51,1.9a2,2,0,0,0,1.26,1.48l.3.07h0c1,.18,1.71-.38,2.25-1.82,0,0,.22-.79.26-1.11,0,0,0-.07,0-.11l-.09,0A6.33,6.33,0,0,1,13.52,68.06Z"/><path class="cls-2" d="M12.08,70.26A.88.88,0,0,1,12,70c-.08-.74.21-2.36,1.51-1.9A6.33,6.33,0,0,0,16,68.5l.09,0a3.1,3.1,0,0,0,.7-.52s-.51-.11-.58-.41A2.29,2.29,0,0,0,14,65.68a1.85,1.85,0,0,0-1.58.94h0l-.14.16a4,4,0,0,0-.75,1.33A2.93,2.93,0,0,0,12.08,70.26Z"/><path class="cls-9" d="M23.57,77.39a.92.92,0,0,0,0-1.84h-1v1.84Z"/><path class="cls-3" d="M12.94,72.71A1,1,0,0,0,13.27,74l1.46.88L19,77.39h3.57V75.55H19.44l-5-3-.34-.21A.84.84,0,0,0,12.94,72.71Z"/><path class="cls-1" d="M99.32,79.5c0,10.4-7.92,18.83-17.69,18.83S64,89.9,64,79.5s7.91-18.83,17.68-18.83S99.32,69.1,99.32,79.5Z"/><path class="cls-2" d="M89.17,91.26H87.44v-5a7.8,7.8,0,0,0,1.73-.33Z"/><path class="cls-2" d="M91.12,91.26a.66.66,0,0,1,0,1.31H85.49a.66.66,0,0,1,0-1.31h5.63Z"/><path class="cls-3" d="M86.27,80.74l.36-5.9L88.09,74a.94.94,0,0,0,.33-1.25.84.84,0,0,0-1.18-.36l-.33.21c.12-.39.32-.72.58-.7L89,71.45c.53,0,1.37,2,1.39,2.39a40.06,40.06,0,0,1-.18,6.9H86.27Z"/><path class="cls-4" d="M78.33,90.18h2.25l-.14,1.06a1.14,1.14,0,0,1-1.11,1h-.16a1.17,1.17,0,0,1-.94-1.34Z"/><path class="cls-5" d="M79.47,81.76a1.15,1.15,0,0,1,1.1-1h9.59c-.06.57,0,2.35-1.51,2.38H81.54l-1,7.06H78.33Z"/><rect class="cls-4" x="66.79" y="78.65" width="13.5" height="1.69"/><polygon class="cls-6" points="71.5 77.41 71.27 77.41 71.27 78.47 71.27 78.47 69.21 70.93 69.69 70.78 71.5 77.41"/><polygon class="cls-7" points="71.5 77.41 78.65 77.41 78.65 78.47 71.27 78.47 71.27 78.47 71.27 77.41 71.5 77.41"/><path class="cls-8" d="M85.31,84.08c2.43.33,4.25-.19,5.41-1.54,2.66-3.09,1.39-9.56,1.38-9.63a1.06,1.06,0,0,1,.76-1.25,1,1,0,0,1,1.18.81c.06.31,1.49,7.6-1.85,11.49a6.41,6.41,0,0,1-3,2,7.8,7.8,0,0,1-1.73.33q-.39,0-.78,0a12.63,12.63,0,0,1-1.59-.11A1,1,0,0,1,84.21,85,1,1,0,0,1,85.31,84.08Z"/><path class="cls-9" d="M89,66.62a1.83,1.83,0,0,1,.13.16Z"/><path class="cls-9" d="M87.84,68.06c1.3-.46,1.59,1.16,1.51,1.9a2,2,0,0,1-1.26,1.48l-.3.07h0c-1,.18-1.72-.38-2.26-1.82a10.51,10.51,0,0,1-.25-1.11.41.41,0,0,1,0-.11.16.16,0,0,0,.09,0A6.26,6.26,0,0,0,87.84,68.06Z"/><path class="cls-2" d="M89.28,70.26a.88.88,0,0,0,.07-.3c.08-.74-.21-2.36-1.51-1.9a6.26,6.26,0,0,1-2.5.44.16.16,0,0,1-.09,0,3,3,0,0,1-.71-.52s.51-.11.58-.41a2.29,2.29,0,0,1,2.28-1.86,1.87,1.87,0,0,1,1.59.94h0l.13.16a4,4,0,0,1,.76,1.33A3,3,0,0,1,89.28,70.26Z"/><path class="cls-9" d="M77.79,77.39a.92.92,0,0,1,0-1.84h1v1.84Z"/><path class="cls-3" d="M88.42,72.71A.94.94,0,0,1,88.09,74l-1.46.88-4.25,2.55H78.82V75.55h3.1l5-3,.33-.21A.84.84,0,0,1,88.42,72.71Z"/><ellipse class="cls-10" cx="49.66" cy="49.16" rx="24.8" ry="26.4"/><rect class="cls-11" x="36.73" y="29.51" width="26.74" height="20.37"/><path class="cls-2" d="M48.86,31.49a1.55,1.55,0,1,1-1.52-1.24A1.4,1.4,0,0,1,48.86,31.49Z"/><polygon class="cls-12" points="46.19 37.45 46.19 40.03 47.38 43.04 48.43 40.03 48.43 38.97 48.02 39.4 46.19 37.45"/><path class="cls-13" d="M47.36,38a1.59,1.59,0,0,1-1.16-.52h0L48.56,40l-.13-1V37.53A1.63,1.63,0,0,1,47.36,38Z"/><path class="cls-14" d="M49.32,36.3l0,0,0,0v0a1.9,1.9,0,0,1-3.79,0v0l0,0,0,0h0c-.16,0-.45-.47-.48-.95a2.17,2.17,0,0,1,0-.94h0c.06,0,.14.07.22.19l.09.13,0-.16a1.85,1.85,0,0,1-.08-.49,2.24,2.24,0,1,1,4.45,0,1.85,1.85,0,0,1-.08.49l0,.16.09-.14c.08-.11.16-.18.21-.18h0a2.17,2.17,0,0,1,0,.94C49.77,35.83,49.48,36.3,49.32,36.3Z"/><path class="cls-15" d="M47,72.46a.8.8,0,0,1-.83.51c-.34,0-.61-.31-.78-.63l-.1.31a1.09,1.09,0,0,0,.15,1c.53.58,1.55.28,1.55.28a1.2,1.2,0,0,0,.14-.81Z"/><path class="cls-14" d="M46.14,73a.8.8,0,0,0,.83-.51l-.2-1,.34-8.3-1.5-1.86h-.15s-1,3.3-.58,5.37.71,4.86.71,4.86l-.23.81C45.53,72.66,45.8,73,46.14,73Z"/><path class="cls-15" d="M47.36,48.79V63.57H43.94s.49-4.17.07-5.84l0-.07c-.67-6-.13-6.12,1-8.87Z"/><path class="cls-4" d="M47.74,72.46a.81.81,0,0,0,.83.51c.35,0,.61-.31.79-.63l.09.31a1,1,0,0,1-.15,1c-.53.58-1.55.28-1.55.28a1.14,1.14,0,0,1-.13-.81Z"/><path class="cls-12" d="M48.57,73a.81.81,0,0,1-.83-.51l.2-1-.34-8.3,1.5-1.86h.16s1,3.3.57,5.37-.71,4.86-.71,4.86l.24.81C49.18,72.66,48.92,73,48.57,73Z"/><path class="cls-12" d="M41.94,52.19a4.14,4.14,0,0,0,.63,2.56c.76.83.59.87.76.83.36-.08-.6-.66-.39-2.38,0-.35.28-.13.33.24s0,.87.29.73a2.29,2.29,0,0,0-.29-1.85c-.59-.72-.42-.33-.43-.66s.74-2.88.69-3.32S41.94,52.19,41.94,52.19Z"/><path class="cls-12" d="M57.77,41.13s1.55-1.35,1.57-2.5.15-1.06,0-1.15c-.32-.22,0,.92-1.3,2-.27.22-.3-.11-.09-.42s.56-.63.29-.73a2.18,2.18,0,0,0-1,1.53c0,1,.08.55-.13.79S57.77,41.13,57.77,41.13Z"/><path class="cls-4" d="M51.93,40.82a8.77,8.77,0,0,0,1.62,3.39l3.59-3.85.63.77-3.43,4.78a1.17,1.17,0,0,1-1.6.16l-2.41-1.86.08-.67-.35-4.87C50.79,38.67,51.83,40.23,51.93,40.82Z"/><path class="cls-4" d="M50.06,38.67c.68,0,.35,4.87.35,4.87l-.77,6.2h-3l.77-7,1-4.08Z"/><path class="cls-16" d="M47.84,31.73s-.44,1.2.28,1.72a15.65,15.65,0,0,1,1.37,1.11A4.06,4.06,0,0,0,49.73,33C49.59,32.26,48.38,31,47.84,31.73Z"/><path class="cls-17" d="M48.22,31.53a3.71,3.71,0,0,1-.88,1.94,10.5,10.5,0,0,1-2.19,1.12,3.48,3.48,0,0,1,.31-2.25C46,31.29,47.87,31,48.22,31.53Z"/><path class="cls-15" d="M42.82,40.82c-.3,1.76-.56,7.14-.56,7.14l-.32,4.23.94-.45,1.18-4.64.17-2.89.11-.67.35-4.87C44,38.67,42.93,40.23,42.82,40.82Z"/><path class="cls-15" d="M44.69,38.67c-.67,0-.35,4.87-.35,4.87l.78,6.2h2.24l0-7-1.15-4.08Z"/><path class="cls-4" d="M47.36,48.79V63.57h3.41s-.49-4.17-.06-5.84l0-.07c.67-6,.13-6.12-1-8.87Z"/></g></g></svg>