<svg xmlns="http://www.w3.org/2000/svg" viewBox="0 0 100 100"><g id="Camada_2" data-name="Camada 2"><g id="OBJECTS"><path d="M50,35.4A14.63,14.63,0,1,0,64.65,50,14.65,14.65,0,0,0,50,35.4Zm0,23.41A8.78,8.78,0,1,1,58.79,50,8.79,8.79,0,0,1,50,58.81Z"/><path d="M50,54.17,45.86,50,50,45.89,54.14,50Z"/><path d="M76.19,68.94a84.66,84.66,0,0,0-.82-17.57C73.14,36.74,67.12,22.8,57.46,9.94L50,0,42.54,9.94C32.88,22.8,26.86,36.74,24.63,51.37a84.66,84.66,0,0,0-.82,17.57,28.6,28.6,0,0,0-11.9,23.2V100L18,95.54a26.13,26.13,0,0,1,10.09-4C29.19,95,30,97,31.13,100c1.93-1.29,6.58-7,15.94-8.14V100h5.86V91.86C62.32,93,67,98.72,68.87,100c1.12-3,1.94-5,3-8.44a26.15,26.15,0,0,1,10.08,4L88.09,100V92.14A28.6,28.6,0,0,0,76.19,68.94ZM18,88.77A22.57,22.57,0,0,1,24.5,76a89.6,89.6,0,0,0,2,9.92A31.86,31.86,0,0,0,18,88.77Zm48.1,1.68A30.49,30.49,0,0,0,52.93,86V70.71H47.07V86a30.49,30.49,0,0,0-13.19,4.48c-8.74-26.62-4.06-53.82,13.34-77L50,9.75l2.77,3.7C70.18,36.63,74.86,63.83,66.12,90.45Zm7.42-4.54a89.6,89.6,0,0,0,2-9.92A22.57,22.57,0,0,1,82,88.77,31.86,31.86,0,0,0,73.54,85.91Z"/><path d="M0,23.69H17.77v5.86H0Z"/><path d="M82.23,23.69H100v5.86H82.23Z"/><path d="M6.1,2.94,22,10.36l-2.48,5.31L3.62,8.25Z"/><path d="M93.9,50.3,78,42.88l2.48-5.31L96.38,45Z"/><path d="M3.62,45l15.93-7.42L22,42.88,6.1,50.3Z"/><path d="M93.9,2.94l2.48,5.31L80.45,15.67,78,10.36Z"/></g></g></svg>