<svg xmlns="http://www.w3.org/2000/svg" viewBox="0 0 100 100"><g id="Camada_2" data-name="Camada 2"><g id="OBJECTS"><path d="M44.1,27.3a8.77,8.77,0,0,0-1.85-14.14L48.62,0H15.84L22.2,13.16A8.78,8.78,0,0,0,20.36,27.3C4.54,39.41,0,58.58,0,78.5V94.14H52.73V100H100V41.41H56.33A46.29,46.29,0,0,0,44.1,27.3ZM26.37,23.83a2.93,2.93,0,1,1,0-5.86H38.09a2.93,2.93,0,1,1,0,5.86Zm12.9-18-3,6.25h-8l-3-6.25ZM5.86,88.28V78.5c0-23.86,7-39.84,21.33-48.81H37.26a40.21,40.21,0,0,1,15.47,17.5V88.28Zm88.28,5.86H58.59V82.42H94.14ZM58.59,76.56V64.84H94.14V76.56ZM94.14,47.27V59H58.59V47.27Z"/><path d="M32.23,56.05A2.94,2.94,0,0,1,35.16,59H41a8.81,8.81,0,0,0-5.86-8.28V47.27H29.3V50.7a8.79,8.79,0,0,0,2.93,17.07A2.93,2.93,0,1,1,29.3,70.7H23.44A8.81,8.81,0,0,0,29.3,79v3.43h5.86V79a8.79,8.79,0,0,0-2.93-17.08,2.93,2.93,0,1,1,0-5.86Z"/></g></g></svg>