<svg xmlns="http://www.w3.org/2000/svg" viewBox="0 0 101.48 74.79"><g id="Camada_2" data-name="Camada 2"><g id="BACKGROUND_1" data-name="BACKGROUND 1"><path d="M51.69,0c1,.66,1.93,1.36,2.88,2.1l2.61,2,5.19,4,10.4,7.91,10.38,7.91c3.47,2.63,7,5.23,10.53,7.73a.77.77,0,0,1,0,1.27c-1.88,1.26-3.75,2.55-5.59,3.87l-5.52,4a72.51,72.51,0,0,1-11.78,7c-2.08,1-4.16,1.89-6.22,2.82l-6.15,2.86c-4.08,1.91-8.07,4-12.11,6l0,0a1,1,0,0,1-1,0C41.2,56.91,37.56,54,33.78,51.29s-7.77-5.16-11.43-8-7.23-5.84-10.86-8.72c-1.81-1.46-3.62-2.91-5.44-4.33-.91-.72-1.84-1.41-2.75-2.1A26.2,26.2,0,0,0,.55,26.27l-.06,0A.92.92,0,0,1,.11,25a1,1,0,0,1,.38-.39l6.26-3.3C8.84,20.2,10.89,19,13,17.89s4.14-2.27,6.24-3.32,4.25-2,6.38-3c4.26-2,8.52-4,12.84-5.89,2.15-.95,4.29-1.93,6.46-2.85l3.25-1.38L49.75.72l.81-.34L51,.22A3.3,3.3,0,0,1,51.69,0Zm-.14,1.11c0,.09,0,.14-.08.16l-.39.21-.78.41-1.57.82L45.6,4.33,39.31,7.54c-4.18,2.15-8.4,4.22-12.6,6.34C24.6,14.92,22.52,16,20.4,17S16.14,19,14,20c-4.31,1.89-8.51,4-12.61,6.26l-.06-1.67a31.67,31.67,0,0,1,3.09,2c1,.68,1.91,1.36,2.85,2C9.15,30,11,31.36,12.86,32.76c3.69,2.83,7.44,5.57,11.09,8.43s7,6.14,10.77,8.82a108,108,0,0,0,11.6,7.49h-1c4-2.23,8-4.29,12.07-6.3s8.22-3.86,12.12-6,7.78-4.39,11.75-6.54a121.77,121.77,0,0,0,11.57-7l0,1.27L82.14,25.22l-5.3-3.83L71.6,17.47c-3.48-2.64-6.89-5.36-10.3-8.08l-5-4.15-2.5-2.12C53,2.49,52.3,1.82,51.55,1.11Z"/><path d="M46.32,58.77c.06,1.26.06,2.52.07,3.78s0,2.51,0,3.77c0,2.5-.27,5-.28,7.53v0a.75.75,0,0,1-1.1.65c-.73-.4-1.49-.76-2.24-1.13a23.09,23.09,0,0,0-2.36-.92A12.64,12.64,0,0,1,36,70c-2.62-2.11-5.48-3.86-7.87-6.23a15.66,15.66,0,0,0-4-3,17.06,17.06,0,0,1-3.9-3.11,47.33,47.33,0,0,1-7.07-7.53.47.47,0,0,1-.1-.27l0-.35a18.78,18.78,0,0,1,0-3.27c.09-1.09.17-2.19.29-3.29a46.86,46.86,0,0,1,1.07-6.59.57.57,0,0,1,.69-.41.56.56,0,0,1,.43.52c.12,2.2.22,4.39.24,6.59,0,1.1,0,2.21,0,3.32a14.92,14.92,0,0,1-.41,3.31l-.12-.62a6.77,6.77,0,0,0,1,2,14.46,14.46,0,0,0,1.61,1.72c1.18,1.06,2.55,2,3.85,3a19.35,19.35,0,0,1,3.77,3.22,13.29,13.29,0,0,0,3.76,3.21c2.86,1.69,5.37,3.82,8.27,5.36a16.17,16.17,0,0,1,4,2.77,15.91,15.91,0,0,0,4.11,2.73l-1.1.68c-.06-2.53-.25-5.07-.14-7.6.06-1.27.13-2.53.27-3.79s.28-2.53.51-3.78a.57.57,0,0,1,1.12.08Z"/><path d="M45.53,73.74a60.44,60.44,0,0,1,8.92-4.56,28.72,28.72,0,0,0,4.46-2.26c.69-.49,1.3-1.12,2-1.62a8.79,8.79,0,0,1,2.18-1.21A35.37,35.37,0,0,0,67.6,62c.74-.38,1.48-.76,2.25-1.09s1.56-.64,2.31-1c1.58-.61,2.55-2.28,4.13-2.89l4.53-2.19-.51.85a23.44,23.44,0,0,0,0-3.93c-.08-.66-.2-1.31-.26-2a11.67,11.67,0,0,1,0-2A55.33,55.33,0,0,1,81,39.9v0a.57.57,0,0,1,1.12,0,53.59,53.59,0,0,1,.66,7.88,11.8,11.8,0,0,1-.06,2c-.09.65-.22,1.31-.33,2a24.7,24.7,0,0,0-.08,3.94.9.9,0,0,1-.41.78l-.1.07c-1.4.91-2.83,1.79-4.22,2.72s-3.28,1-4.62,2c-.71.44-1.38,1-2.07,1.43s-1.41.91-2.13,1.34a44.3,44.3,0,0,0-4.31,2.63,8.64,8.64,0,0,1-2.25,1.13c-.8.27-1.68.4-2.48.68a34.29,34.29,0,0,0-4.5,2.24A48.11,48.11,0,0,1,46,74.76a.57.57,0,0,1-.72-.36A.58.58,0,0,1,45.53,73.74Z"/><path d="M47,26.14A3.85,3.85,0,0,1,50.51,24a10,10,0,0,1,3.71,1.18,14.18,14.18,0,0,0,2,.44,2.62,2.62,0,0,1,1.56,1.65,5.41,5.41,0,0,1,.51,2.42A2.75,2.75,0,0,1,57,32a8,8,0,0,1-2.14.6c-.31.1-.62.31-.95.45a1.94,1.94,0,0,1-1,.1A12.49,12.49,0,0,1,51,32.57c-.61-.26-1.18-.58-1.75-.89s-1.17-.61-1.85-1a2.88,2.88,0,0,1-1.27-2,3.48,3.48,0,0,1,.4-2.47,2.39,2.39,0,0,1,2.1-1.29.56.56,0,0,1,.51.61.58.58,0,0,1-.14.33l-.16.17a1.48,1.48,0,0,0-.36,1,2,2,0,0,0,.17,1,4.92,4.92,0,0,1,.51,1,1.69,1.69,0,0,0,1,1.07,4.88,4.88,0,0,0,1.49.42,6,6,0,0,0,1.52.06,1.67,1.67,0,0,1,.74.14,2,2,0,0,0,.79.31,1.2,1.2,0,0,0,1.11-.56,1.83,1.83,0,0,0,.15-.79,1.16,1.16,0,0,0-.39-.91,2,2,0,0,1-.88-.82,3,3,0,0,0-1.07-1.31,5.11,5.11,0,0,0-3-.63,4.58,4.58,0,0,0-2.62.84l0,0a.58.58,0,0,1-.8-.14A.55.55,0,0,1,47,26.14Z"/><path d="M50.79,27.43a21.85,21.85,0,0,1,10.2-9,43.6,43.6,0,0,1,13.3-3.23c2.25-.24,4.49-.43,6.8-.5a30.16,30.16,0,0,1,7,.62c4.59,1,8.45,2.93,12.72,2.71h0a.64.64,0,0,1,.27,1.24A13.2,13.2,0,0,1,94,19.7c-2.31-.38-4.46-1-6.55-1.5-4.12-.91-8.55-.85-13-.78a35.21,35.21,0,0,0-12.91,2.19A18.44,18.44,0,0,0,51.91,28a.63.63,0,0,1-.85.29.65.65,0,0,1-.28-.86Z"/><path d="M15.14,40.57c.74.51,1.41,1.08,2.12,1.6s1.41,1,2.09,1.63a.32.32,0,0,1-.31.54A9.22,9.22,0,0,1,16.65,43a9.49,9.49,0,0,1-1.92-2,.29.29,0,0,1,.07-.4A.3.3,0,0,1,15.14,40.57Z"/><path d="M15.25,43.65a8.37,8.37,0,0,1,1.52,1A7.28,7.28,0,0,1,18.05,46a.32.32,0,0,1-.09.45.33.33,0,0,1-.32,0,7.46,7.46,0,0,1-1.51-1,8.33,8.33,0,0,1-1.25-1.33.3.3,0,0,1,.07-.41A.32.32,0,0,1,15.25,43.65Z"/><path d="M15.27,46.81a8.33,8.33,0,0,1,1.21.88,7.49,7.49,0,0,1,1,1.07.32.32,0,0,1-.06.45.33.33,0,0,1-.3,0,3.83,3.83,0,0,1-1.33-.83,4.08,4.08,0,0,1-1-1.24A.29.29,0,0,1,15,46.8.26.26,0,0,1,15.27,46.81Z"/><path d="M45.21,62.13a6.3,6.3,0,0,1-3.14-1.78.33.33,0,0,1,0-.46.32.32,0,0,1,.31-.06A9.35,9.35,0,0,1,44,60.6a11.54,11.54,0,0,1,1.45,1,.3.3,0,0,1,0,.42A.28.28,0,0,1,45.21,62.13Z"/><path d="M44.91,65.05a3.34,3.34,0,0,1-1.31-.44,3,3,0,0,1-1-.92.34.34,0,0,1,.1-.46.37.37,0,0,1,.27,0h0a5,5,0,0,1,1.16.56,6,6,0,0,1,1,.77h0a.3.3,0,0,1,0,.43A.33.33,0,0,1,44.91,65.05Z"/><path d="M44.78,68.73A6.3,6.3,0,0,1,43.07,68a6,6,0,0,1-1.42-1.24.32.32,0,0,1,.05-.45.31.31,0,0,1,.32,0,9.43,9.43,0,0,1,1.59.89,12.77,12.77,0,0,1,1.45,1.12.3.3,0,0,1,0,.42A.29.29,0,0,1,44.78,68.73Z"/><path d="M80.66,45.33a17.58,17.58,0,0,1-2.21,1.37,14.94,14.94,0,0,1-2.39,1h0a.32.32,0,0,1-.4-.22.32.32,0,0,1,.11-.33A14.61,14.61,0,0,1,78,45.82a16,16,0,0,1,2.42-1,.29.29,0,0,1,.36.2.31.31,0,0,1-.1.31Z"/><path d="M81,49a7.53,7.53,0,0,1-1.52,1,7,7,0,0,1-1.69.64.32.32,0,0,1-.38-.25.33.33,0,0,1,.1-.3,7.5,7.5,0,0,1,1.53-1,8,8,0,0,1,1.7-.62.3.3,0,0,1,.35.24A.3.3,0,0,1,81,49Z"/><path d="M80.82,51.92A8.36,8.36,0,0,1,79,53.41a7.47,7.47,0,0,1-2.15.92.32.32,0,0,1-.38-.24.32.32,0,0,1,.13-.32,21.49,21.49,0,0,1,1.89-1.21c.65-.37,1.27-.77,2-1.09a.29.29,0,0,1,.35.45Z"/></g></g></svg>