<?xml version="1.0" encoding="utf-8"?>
<!-- Generator: Adobe Illustrator 16.0.0, SVG Export Plug-In . SVG Version: 6.00 Build 0)  -->
<!DOCTYPE svg PUBLIC "-//W3C//DTD SVG 1.1//EN" "http://www.w3.org/Graphics/SVG/1.1/DTD/svg11.dtd">
<svg version="1.1" id="Layer_1" xmlns="http://www.w3.org/2000/svg" xmlns:xlink="http://www.w3.org/1999/xlink" x="0px" y="0px"
	 width="177.736px" height="111.271px" viewBox="0 0 177.736 111.271" enable-background="new 0 0 177.736 111.271"
	 xml:space="preserve">
<path fill="#BBEAD6" d="M15.409,79.979c7.386,9.952,19.22,16.416,32.538,16.416s25.152-6.464,32.538-16.416H15.409z"/>
<g>
	<path fill="#BBEAD6" d="M113.003,15.669l31.359,61.722V15.417h-31.805C112.737,15.417,112.918,15.501,113.003,15.669z"/>
	<path fill="#BBEAD6" d="M145.362,15.417v63.562h2.191c9.191-6.062,25.157-38.669,30.062-62.984l0.137-0.578H145.362z"/>
</g>
<path fill="#BBEAD6" d="M48.393,15.669c0.3,0.591,27.999,55.107,31.858,62.706l7.425-14.614c0.505-2.545,0.771-5.174,0.771-7.864
	c0-22.332-18.168-40.499-40.5-40.499s-40.5,18.168-40.5,40.499c0,8.574,2.686,16.528,7.25,23.084h0.637l32.167-63.312
	C47.672,15.333,48.223,15.333,48.393,15.669z"/>
<polygon fill="#FFFFFF" points="177.125,78.979 145.362,78.979 145.362,0 144.362,0 144.362,78.979 0,78.979 0,79.979 
	144.362,79.979 144.362,111.271 145.362,111.271 145.362,79.979 177.125,79.979 "/>
<path fill="#F35C5A" d="M112.109,15.995l-0.046-0.229l0.049-0.098L80.253,78.375c-3.859-7.599-31.56-62.115-31.858-62.706
	c-0.17-0.336-0.723-0.336-0.893,0L15.335,78.979h126.841C132.985,72.928,117.014,40.315,112.109,15.995z"/>
<path fill="#FC7E7E" d="M142.176,78.979h2.188v-1.59l-31.359-61.722c-0.17-0.336-0.721-0.336-0.891,0l-0.049,0.098l0.046,0.229
	C117.014,40.315,132.985,72.928,142.176,78.979z"/>
</svg>
