<?xml version="1.0" encoding="UTF-8"?>
<svg xmlns="http://www.w3.org/2000/svg" xmlns:xlink="http://www.w3.org/1999/xlink" width="120pt" height="83pt" viewBox="0 0 120 83" version="1.1">
<g id="surface1">
<path style=" stroke:none;fill-rule:nonzero;fill:rgb(0%,0%,0%);fill-opacity:1;" d="M 61.125 0 C 62.304688 0.734375 63.40625 1.507812 64.527344 2.332031 L 67.617188 4.550781 L 73.753906 8.988281 L 86.050781 17.765625 L 98.324219 26.546875 C 102.429688 29.464844 106.601562 32.351562 110.777344 35.125 C 110.898438 35.203125 111 35.308594 111.066406 35.429688 C 111.136719 35.554688 111.171875 35.691406 111.171875 35.828125 C 111.171875 35.96875 111.136719 36.105469 111.066406 36.226562 C 111 36.351562 110.898438 36.457031 110.777344 36.535156 C 108.554688 37.933594 106.34375 39.363281 104.167969 40.828125 L 97.636719 45.269531 C 93.265625 48.265625 88.601562 50.863281 83.710938 53.035156 C 81.25 54.144531 78.789062 55.132812 76.355469 56.164062 L 69.082031 59.339844 C 64.257812 61.460938 59.539062 63.777344 54.761719 66 C 54.582031 66.09375 54.378906 66.148438 54.171875 66.148438 C 53.960938 66.148438 53.757812 66.09375 53.578125 66 C 48.71875 63.15625 44.414062 59.929688 39.945312 56.921875 C 35.476562 53.914062 30.757812 51.195312 26.429688 48.042969 C 22.101562 44.890625 17.878906 41.5625 13.585938 38.363281 C 11.445312 36.746094 9.304688 35.136719 7.152344 33.558594 C 6.078125 32.761719 4.976562 31.996094 3.902344 31.230469 C 2.867188 30.472656 1.78125 29.78125 0.652344 29.152344 L 0.578125 29.152344 C 0.449219 29.089844 0.335938 29.003906 0.242188 28.898438 C 0.148438 28.792969 0.078125 28.671875 0.0351562 28.539062 C -0.0078125 28.40625 -0.0195312 28.269531 -0.00390625 28.132812 C 0.0117188 27.996094 0.0585938 27.863281 0.128906 27.746094 C 0.234375 27.5625 0.390625 27.414062 0.578125 27.3125 L 7.980469 23.648438 C 10.453125 22.417969 12.878906 21.085938 15.371094 19.855469 C 17.867188 18.621094 20.269531 17.335938 22.75 16.167969 C 25.234375 15.003906 27.777344 13.949219 30.296875 12.839844 C 35.332031 10.621094 40.371094 8.402344 45.480469 6.304688 C 48.019531 5.25 50.550781 4.160156 53.117188 3.140625 L 56.960938 1.609375 L 58.828125 0.800781 L 59.789062 0.421875 L 60.308594 0.246094 C 60.570312 0.136719 60.84375 0.0546875 61.125 0 Z M 60.957031 1.230469 C 60.957031 1.332031 60.957031 1.386719 60.863281 1.410156 L 60.402344 1.640625 L 59.480469 2.097656 L 57.625 3.007812 L 53.921875 4.804688 L 46.484375 8.367188 C 41.542969 10.753906 36.550781 13.050781 31.585938 15.402344 C 29.089844 16.558594 26.628906 17.757812 24.121094 18.867188 C 21.617188 19.976562 19.085938 21.085938 16.554688 22.195312 C 11.457031 24.292969 6.492188 26.632812 1.644531 29.144531 L 1.574219 27.289062 C 2.835938 27.960938 4.054688 28.703125 5.226562 29.507812 C 6.410156 30.261719 7.484375 31.019531 8.597656 31.726562 C 10.820312 33.292969 13.007812 34.800781 15.207031 36.355469 C 19.570312 39.496094 24.003906 42.539062 28.320312 45.710938 C 32.636719 48.886719 36.597656 52.527344 41.054688 55.5 C 45.433594 58.542969 50.015625 61.320312 54.773438 63.8125 L 53.589844 63.8125 C 58.320312 61.335938 63.050781 59.050781 67.863281 56.820312 C 72.675781 54.589844 77.582031 52.535156 82.195312 50.160156 C 86.808594 47.785156 91.394531 45.289062 96.089844 42.902344 C 100.800781 40.554688 105.367188 37.960938 109.769531 35.136719 L 109.769531 36.542969 L 97.128906 27.988281 L 90.863281 23.738281 L 84.667969 19.386719 C 80.550781 16.457031 76.519531 13.4375 72.488281 10.421875 L 66.574219 5.816406 L 63.617188 3.460938 C 62.671875 2.761719 61.84375 2.019531 60.957031 1.230469 Z M 60.957031 1.230469 "/>
<path style=" stroke:none;fill-rule:nonzero;fill:rgb(0%,0%,0%);fill-opacity:1;" d="M 54.773438 65.222656 C 54.84375 66.621094 54.84375 68.019531 54.855469 69.417969 C 54.867188 70.816406 54.855469 72.203125 54.855469 73.601562 C 54.855469 76.375 54.535156 79.148438 54.523438 81.957031 C 54.523438 82.097656 54.480469 82.238281 54.40625 82.359375 C 54.328125 82.484375 54.21875 82.585938 54.089844 82.660156 C 53.960938 82.730469 53.8125 82.769531 53.660156 82.773438 C 53.507812 82.777344 53.359375 82.746094 53.222656 82.679688 C 52.359375 82.234375 51.460938 81.835938 50.574219 81.425781 C 49.664062 81.035156 48.734375 80.695312 47.785156 80.402344 C 45.871094 79.835938 44.097656 78.910156 42.570312 77.683594 C 39.472656 75.34375 36.089844 73.402344 33.265625 70.769531 C 31.886719 69.429688 30.289062 68.304688 28.535156 67.441406 C 26.824219 66.507812 25.269531 65.347656 23.921875 63.988281 C 20.820312 61.5 18.015625 58.695312 15.5625 55.632812 C 15.488281 55.546875 15.449219 55.441406 15.445312 55.332031 L 15.445312 54.945312 C 15.332031 53.738281 15.332031 52.523438 15.445312 51.316406 C 15.550781 50.105469 15.644531 48.886719 15.785156 47.664062 C 16.023438 45.203125 16.445312 42.757812 17.050781 40.351562 C 17.097656 40.191406 17.207031 40.050781 17.359375 39.964844 C 17.511719 39.882812 17.695312 39.855469 17.867188 39.894531 C 18.007812 39.925781 18.132812 40 18.226562 40.105469 C 18.316406 40.210938 18.371094 40.339844 18.375 40.472656 C 18.519531 42.914062 18.636719 45.34375 18.660156 47.785156 C 18.660156 49.007812 18.660156 50.238281 18.660156 51.472656 C 18.644531 52.707031 18.484375 53.941406 18.175781 55.144531 L 18.035156 54.457031 C 18.292969 55.253906 18.691406 56.003906 19.214844 56.675781 C 19.792969 57.359375 20.429688 58 21.121094 58.585938 C 22.515625 59.761719 24.136719 60.804688 25.671875 61.914062 C 27.316406 62.921875 28.8125 64.121094 30.128906 65.488281 C 31.363281 66.925781 32.871094 68.132812 34.578125 69.050781 C 37.957031 70.925781 40.925781 73.289062 44.355469 75 C 46.089844 75.792969 47.683594 76.828125 49.085938 78.074219 C 50.527344 79.3125 52.167969 80.335938 53.945312 81.101562 L 52.644531 81.855469 C 52.574219 79.050781 52.347656 76.230469 52.480469 73.421875 C 52.550781 72.011719 52.632812 70.613281 52.796875 69.214844 C 52.964844 67.816406 53.128906 66.410156 53.402344 65.023438 C 53.441406 64.878906 53.53125 64.75 53.660156 64.664062 C 53.789062 64.574219 53.945312 64.535156 54.105469 64.542969 C 54.261719 64.554688 54.410156 64.617188 54.523438 64.722656 C 54.636719 64.824219 54.710938 64.960938 54.726562 65.109375 Z M 54.773438 65.222656 "/>
<path style=" stroke:none;fill-rule:nonzero;fill:rgb(0%,0%,0%);fill-opacity:1;" d="M 53.839844 81.835938 C 57.199219 79.875 60.726562 78.183594 64.386719 76.773438 C 66.21875 76.082031 67.984375 75.246094 69.660156 74.265625 C 70.476562 73.722656 71.199219 73.023438 72.027344 72.46875 C 72.8125 71.90625 73.679688 71.457031 74.605469 71.125 C 76.4375 70.46875 78.21875 69.695312 79.9375 68.804688 C 80.8125 68.382812 81.6875 67.960938 82.597656 67.597656 C 83.507812 67.230469 84.441406 66.886719 85.328125 66.488281 C 87.199219 65.808594 88.34375 63.957031 90.214844 63.277344 L 95.570312 60.847656 L 94.964844 61.792969 C 95.097656 60.339844 95.097656 58.882812 94.964844 57.429688 C 94.871094 56.699219 94.730469 55.976562 94.660156 55.210938 C 94.589844 54.472656 94.589844 53.730469 94.660156 52.992188 C 94.8125 50.066406 95.1875 47.15625 95.78125 44.28125 C 95.8125 44.136719 95.894531 44.003906 96.015625 43.910156 C 96.136719 43.816406 96.289062 43.765625 96.445312 43.765625 C 96.601562 43.765625 96.753906 43.816406 96.875 43.910156 C 96.996094 44.003906 97.078125 44.136719 97.105469 44.28125 C 97.597656 47.171875 97.855469 50.097656 97.886719 53.023438 C 97.929688 53.765625 97.90625 54.507812 97.816406 55.246094 C 97.710938 55.964844 97.554688 56.699219 97.425781 57.464844 C 97.269531 58.917969 97.238281 60.378906 97.332031 61.835938 C 97.335938 62.007812 97.292969 62.175781 97.210938 62.328125 C 97.125 62.480469 97 62.609375 96.847656 62.703125 L 96.726562 62.78125 C 95.074219 63.789062 93.382812 64.765625 91.738281 65.796875 C 90.09375 66.832031 87.859375 66.910156 86.273438 68.019531 C 85.4375 68.507812 84.644531 69.128906 83.828125 69.605469 C 83.011719 70.082031 82.160156 70.613281 81.308594 71.09375 C 79.550781 71.972656 77.851562 72.949219 76.210938 74.011719 C 75.394531 74.546875 74.5 74.972656 73.550781 75.265625 C 72.605469 75.566406 71.566406 75.707031 70.617188 76.019531 C 68.78125 76.726562 67.003906 77.554688 65.296875 78.503906 C 61.839844 80.347656 58.183594 81.839844 54.394531 82.964844 C 54.226562 83.019531 54.039062 83.007812 53.882812 82.933594 C 53.722656 82.855469 53.601562 82.726562 53.542969 82.566406 C 53.5 82.429688 53.503906 82.285156 53.558594 82.152344 C 53.613281 82.019531 53.710938 81.910156 53.839844 81.835938 Z M 53.839844 81.835938 "/>
<path style=" stroke:none;fill-rule:nonzero;fill:rgb(0%,0%,0%);fill-opacity:1;" d="M 55.578125 29.007812 C 55.960938 28.285156 56.550781 27.679688 57.285156 27.257812 C 58.019531 26.839844 58.867188 26.621094 59.726562 26.632812 C 61.269531 26.796875 62.757812 27.242188 64.113281 27.945312 C 64.890625 28.160156 65.679688 28.324219 66.480469 28.433594 C 66.914062 28.589844 67.304688 28.832031 67.625 29.152344 C 67.945312 29.46875 68.183594 29.847656 68.324219 30.261719 C 68.742188 31.101562 68.949219 32.023438 68.929688 32.949219 C 68.921875 33.460938 68.78125 33.964844 68.515625 34.414062 C 68.25 34.863281 67.867188 35.242188 67.402344 35.511719 C 66.597656 35.84375 65.746094 36.066406 64.871094 36.179688 C 64.503906 36.289062 64.140625 36.523438 63.75 36.679688 C 63.371094 36.8125 62.964844 36.851562 62.566406 36.789062 C 61.796875 36.632812 61.039062 36.417969 60.308594 36.144531 C 59.585938 35.855469 58.910156 35.5 58.238281 35.15625 C 57.5625 34.8125 56.855469 34.480469 56.050781 34.046875 C 55.648438 33.800781 55.304688 33.472656 55.046875 33.089844 C 54.785156 32.707031 54.617188 32.277344 54.546875 31.828125 C 54.339844 30.890625 54.507812 29.914062 55.023438 29.085938 C 55.257812 28.660156 55.613281 28.300781 56.050781 28.046875 C 56.488281 27.796875 56.992188 27.660156 57.503906 27.65625 C 57.59375 27.664062 57.675781 27.6875 57.753906 27.722656 C 57.832031 27.761719 57.902344 27.8125 57.957031 27.875 C 58.011719 27.9375 58.054688 28.011719 58.082031 28.089844 C 58.105469 28.167969 58.117188 28.25 58.109375 28.332031 C 58.09375 28.46875 58.039062 28.597656 57.941406 28.699219 L 57.753906 28.886719 C 57.46875 29.195312 57.316406 29.589844 57.328125 29.996094 C 57.292969 30.378906 57.359375 30.757812 57.527344 31.105469 C 57.773438 31.453125 57.976562 31.828125 58.132812 32.214844 C 58.222656 32.484375 58.375 32.730469 58.578125 32.9375 C 58.785156 33.140625 59.035156 33.300781 59.3125 33.402344 C 59.871094 33.648438 60.464844 33.804688 61.074219 33.871094 C 61.667969 33.964844 62.273438 33.984375 62.875 33.9375 C 63.175781 33.925781 63.472656 33.980469 63.75 34.09375 C 64.03125 34.269531 64.347656 34.386719 64.683594 34.4375 C 64.941406 34.457031 65.199219 34.40625 65.429688 34.296875 C 65.664062 34.1875 65.859375 34.019531 65.996094 33.816406 C 66.121094 33.539062 66.183594 33.238281 66.171875 32.9375 C 66.179688 32.75 66.140625 32.558594 66.0625 32.382812 C 65.984375 32.210938 65.863281 32.054688 65.710938 31.929688 C 65.273438 31.730469 64.910156 31.414062 64.671875 31.019531 C 64.40625 30.429688 63.96875 29.925781 63.40625 29.5625 C 62.328125 28.996094 61.089844 28.753906 59.859375 28.863281 C 58.746094 28.871094 57.667969 29.195312 56.761719 29.796875 C 56.613281 29.894531 56.429688 29.929688 56.253906 29.902344 C 56.078125 29.871094 55.917969 29.777344 55.8125 29.640625 C 55.714844 29.570312 55.636719 29.472656 55.59375 29.359375 C 55.554688 29.246094 55.546875 29.125 55.578125 29.007812 Z M 55.578125 29.007812 "/>
<path style=" stroke:none;fill-rule:nonzero;fill:rgb(0%,0%,0%);fill-opacity:1;" d="M 60.058594 30.441406 C 62.84375 25.992188 67.070312 22.492188 72.121094 20.453125 C 77.128906 18.488281 82.4375 17.277344 87.847656 16.867188 C 90.507812 16.601562 93.15625 16.390625 95.890625 16.3125 C 98.667969 16.238281 101.445312 16.46875 104.167969 17 C 109.59375 18.113281 114.160156 20.253906 119.207031 20.007812 C 119.390625 19.996094 119.574219 20.042969 119.71875 20.144531 C 119.867188 20.25 119.972656 20.398438 120.011719 20.566406 C 120.050781 20.734375 120.023438 20.910156 119.933594 21.0625 C 119.84375 21.210938 119.699219 21.328125 119.527344 21.386719 C 116.835938 22.257812 113.941406 22.421875 111.15625 21.863281 C 108.421875 21.441406 105.882812 20.753906 103.410156 20.199219 C 98.539062 19.1875 93.300781 19.253906 88.035156 19.332031 C 82.832031 19.238281 77.652344 20.0625 72.769531 21.761719 C 67.914062 23.496094 63.875 26.796875 61.382812 31.074219 C 61.339844 31.15625 61.28125 31.230469 61.207031 31.292969 C 61.132812 31.355469 61.046875 31.402344 60.953125 31.433594 C 60.859375 31.460938 60.761719 31.472656 60.660156 31.46875 C 60.5625 31.460938 60.46875 31.4375 60.378906 31.394531 C 60.203125 31.308594 60.070312 31.160156 60.007812 30.980469 C 59.945312 30.804688 59.960938 30.609375 60.046875 30.441406 Z M 60.058594 30.441406 "/>
<path style=" stroke:none;fill-rule:nonzero;fill:rgb(0%,0%,0%);fill-opacity:1;" d="M 17.902344 45.023438 C 18.777344 45.589844 19.570312 46.222656 20.410156 46.800781 C 21.25 47.375 22.078125 47.910156 22.882812 48.609375 C 22.945312 48.664062 22.984375 48.734375 22.996094 48.816406 C 23.007812 48.894531 22.992188 48.972656 22.949219 49.042969 C 22.90625 49.113281 22.84375 49.167969 22.761719 49.195312 C 22.683594 49.226562 22.597656 49.230469 22.515625 49.207031 C 21.5 48.847656 20.546875 48.34375 19.6875 47.71875 C 18.820312 47.089844 18.054688 46.339844 17.417969 45.5 C 17.367188 45.429688 17.347656 45.347656 17.363281 45.261719 C 17.378906 45.179688 17.429688 45.105469 17.5 45.058594 C 17.554688 45.011719 17.625 44.988281 17.695312 44.980469 C 17.769531 44.976562 17.839844 44.988281 17.902344 45.023438 Z M 17.902344 45.023438 "/>
<path style=" stroke:none;fill-rule:nonzero;fill:rgb(0%,0%,0%);fill-opacity:1;" d="M 18.035156 48.441406 C 18.671875 48.75 19.277344 49.121094 19.832031 49.550781 C 20.402344 49.988281 20.910156 50.492188 21.34375 51.050781 C 21.371094 51.089844 21.394531 51.132812 21.402344 51.179688 C 21.414062 51.226562 21.414062 51.273438 21.402344 51.320312 C 21.394531 51.367188 21.375 51.410156 21.34375 51.449219 C 21.316406 51.488281 21.28125 51.523438 21.238281 51.550781 C 21.179688 51.578125 21.113281 51.59375 21.046875 51.59375 C 20.984375 51.59375 20.917969 51.578125 20.859375 51.550781 C 20.21875 51.25 19.617188 50.875 19.074219 50.4375 C 18.523438 50 18.03125 49.503906 17.597656 48.964844 C 17.542969 48.890625 17.523438 48.804688 17.539062 48.71875 C 17.554688 48.636719 17.605469 48.558594 17.679688 48.507812 C 17.726562 48.46875 17.785156 48.445312 17.847656 48.433594 C 17.910156 48.421875 17.972656 48.425781 18.035156 48.441406 Z M 18.035156 48.441406 "/>
<path style=" stroke:none;fill-rule:nonzero;fill:rgb(0%,0%,0%);fill-opacity:1;" d="M 18.058594 51.949219 C 18.5625 52.234375 19.042969 52.558594 19.488281 52.925781 C 19.921875 53.285156 20.316406 53.679688 20.671875 54.113281 C 20.699219 54.148438 20.722656 54.191406 20.734375 54.238281 C 20.75 54.28125 20.75 54.328125 20.746094 54.375 C 20.738281 54.421875 20.722656 54.46875 20.695312 54.507812 C 20.671875 54.546875 20.640625 54.582031 20.597656 54.613281 C 20.542969 54.636719 20.484375 54.652344 20.421875 54.652344 C 20.359375 54.652344 20.300781 54.636719 20.246094 54.613281 C 19.65625 54.410156 19.121094 54.097656 18.671875 53.691406 C 18.183594 53.308594 17.78125 52.84375 17.488281 52.316406 C 17.472656 52.234375 17.488281 52.148438 17.53125 52.078125 C 17.578125 52.007812 17.652344 51.957031 17.738281 51.9375 C 17.785156 51.910156 17.84375 51.898438 17.898438 51.902344 C 17.953125 51.902344 18.007812 51.917969 18.058594 51.949219 Z M 18.058594 51.949219 "/>
<path style=" stroke:none;fill-rule:nonzero;fill:rgb(0%,0%,0%);fill-opacity:1;" d="M 53.460938 68.949219 C 52.042969 68.644531 50.753906 67.960938 49.746094 66.976562 C 49.675781 66.90625 49.636719 66.816406 49.636719 66.71875 C 49.636719 66.625 49.675781 66.53125 49.746094 66.464844 C 49.796875 66.425781 49.859375 66.398438 49.921875 66.386719 C 49.984375 66.375 50.050781 66.378906 50.113281 66.398438 C 50.78125 66.625 51.421875 66.910156 52.03125 67.253906 C 52.628906 67.582031 53.203125 67.953125 53.746094 68.363281 C 53.808594 68.425781 53.847656 68.507812 53.847656 68.59375 C 53.847656 68.683594 53.808594 68.765625 53.746094 68.828125 C 53.710938 68.867188 53.667969 68.902344 53.617188 68.921875 C 53.570312 68.945312 53.515625 68.953125 53.460938 68.949219 Z M 53.460938 68.949219 "/>
<path style=" stroke:none;fill-rule:nonzero;fill:rgb(0%,0%,0%);fill-opacity:1;" d="M 53.105469 72.191406 C 52.558594 72.132812 52.03125 71.964844 51.558594 71.703125 C 51.085938 71.453125 50.679688 71.101562 50.375 70.679688 C 50.320312 70.597656 50.300781 70.5 50.324219 70.402344 C 50.347656 70.308594 50.40625 70.226562 50.492188 70.171875 C 50.59375 70.132812 50.710938 70.132812 50.8125 70.171875 C 51.296875 70.320312 51.757812 70.53125 52.183594 70.792969 C 52.609375 71.039062 53.003906 71.324219 53.367188 71.648438 C 53.398438 71.679688 53.425781 71.714844 53.445312 71.757812 C 53.464844 71.796875 53.472656 71.839844 53.472656 71.886719 C 53.472656 71.929688 53.464844 71.972656 53.445312 72.015625 C 53.425781 72.054688 53.398438 72.09375 53.367188 72.125 C 53.289062 72.175781 53.199219 72.199219 53.105469 72.191406 Z M 53.105469 72.191406 "/>
<path style=" stroke:none;fill-rule:nonzero;fill:rgb(0%,0%,0%);fill-opacity:1;" d="M 52.953125 76.273438 C 52.238281 76.101562 51.558594 75.828125 50.929688 75.464844 C 50.296875 75.09375 49.730469 74.628906 49.25 74.089844 C 49.21875 74.050781 49.195312 74.011719 49.183594 73.964844 C 49.167969 73.921875 49.164062 73.875 49.171875 73.828125 C 49.175781 73.78125 49.191406 73.734375 49.214844 73.695312 C 49.238281 73.652344 49.273438 73.617188 49.308594 73.589844 C 49.367188 73.558594 49.433594 73.539062 49.5 73.539062 C 49.566406 73.539062 49.632812 73.558594 49.6875 73.589844 C 50.347656 73.859375 50.976562 74.191406 51.570312 74.578125 C 52.171875 74.953125 52.746094 75.367188 53.285156 75.820312 C 53.347656 75.882812 53.386719 75.964844 53.386719 76.054688 C 53.386719 76.140625 53.347656 76.222656 53.285156 76.285156 C 53.230469 76.308594 53.175781 76.324219 53.117188 76.320312 C 53.058594 76.320312 53.003906 76.304688 52.953125 76.273438 Z M 52.953125 76.273438 "/>
<path style=" stroke:none;fill-rule:nonzero;fill:rgb(0%,0%,0%);fill-opacity:1;" d="M 95.378906 50.304688 C 94.550781 50.871094 93.675781 51.382812 92.765625 51.828125 C 91.859375 52.273438 90.914062 52.644531 89.941406 52.9375 C 89.894531 52.949219 89.84375 52.953125 89.792969 52.949219 C 89.742188 52.945312 89.695312 52.929688 89.648438 52.90625 C 89.605469 52.882812 89.566406 52.855469 89.535156 52.816406 C 89.503906 52.78125 89.480469 52.738281 89.46875 52.691406 C 89.449219 52.625 89.453125 52.554688 89.476562 52.492188 C 89.496094 52.425781 89.542969 52.367188 89.597656 52.324219 C 90.429688 51.761719 91.3125 51.265625 92.234375 50.851562 C 93.15625 50.40625 94.113281 50.035156 95.097656 49.738281 C 95.140625 49.726562 95.183594 49.726562 95.230469 49.730469 C 95.277344 49.734375 95.320312 49.746094 95.359375 49.769531 C 95.398438 49.789062 95.433594 49.816406 95.460938 49.847656 C 95.488281 49.882812 95.511719 49.921875 95.523438 49.960938 C 95.539062 50.023438 95.535156 50.089844 95.515625 50.148438 C 95.496094 50.210938 95.457031 50.265625 95.402344 50.304688 Z M 95.378906 50.304688 "/>
<path style=" stroke:none;fill-rule:nonzero;fill:rgb(0%,0%,0%);fill-opacity:1;" d="M 95.78125 54.378906 C 95.234375 54.816406 94.628906 55.1875 93.984375 55.488281 C 93.355469 55.804688 92.683594 56.042969 91.988281 56.199219 C 91.9375 56.207031 91.886719 56.210938 91.839844 56.199219 C 91.789062 56.191406 91.742188 56.175781 91.699219 56.148438 C 91.65625 56.121094 91.621094 56.089844 91.59375 56.050781 C 91.566406 56.011719 91.546875 55.96875 91.539062 55.921875 C 91.523438 55.859375 91.53125 55.800781 91.550781 55.742188 C 91.570312 55.683594 91.605469 55.628906 91.65625 55.589844 C 92.207031 55.152344 92.816406 54.777344 93.464844 54.480469 C 94.105469 54.179688 94.78125 53.949219 95.476562 53.789062 C 95.519531 53.78125 95.566406 53.785156 95.613281 53.792969 C 95.660156 53.800781 95.703125 53.820312 95.742188 53.84375 C 95.78125 53.867188 95.8125 53.898438 95.835938 53.9375 C 95.863281 53.972656 95.878906 54.015625 95.886719 54.058594 C 95.902344 54.113281 95.902344 54.175781 95.882812 54.230469 C 95.863281 54.289062 95.828125 54.339844 95.78125 54.378906 Z M 95.78125 54.378906 "/>
<path style=" stroke:none;fill-rule:nonzero;fill:rgb(0%,0%,0%);fill-opacity:1;" d="M 95.570312 57.621094 C 94.9375 58.261719 94.214844 58.820312 93.417969 59.273438 C 92.632812 59.738281 91.773438 60.082031 90.875 60.292969 C 90.777344 60.3125 90.675781 60.296875 90.59375 60.246094 C 90.507812 60.199219 90.449219 60.117188 90.425781 60.027344 C 90.414062 59.960938 90.421875 59.890625 90.445312 59.828125 C 90.476562 59.765625 90.519531 59.710938 90.578125 59.671875 C 91.300781 59.1875 92.046875 58.742188 92.8125 58.328125 C 93.582031 57.917969 94.316406 57.476562 95.179688 57.121094 C 95.25 57.085938 95.332031 57.074219 95.410156 57.09375 C 95.488281 57.109375 95.558594 57.148438 95.605469 57.207031 C 95.65625 57.269531 95.683594 57.339844 95.679688 57.417969 C 95.675781 57.492188 95.648438 57.5625 95.59375 57.621094 Z M 95.570312 57.621094 "/>
</g>
</svg>
