<svg xmlns="http://www.w3.org/2000/svg" viewBox="0 0 100 74.76"><defs><style>.cls-1{fill:#333;}</style></defs><g id="Camada_2" data-name="Camada 2"><g id="Layer_2" data-name="Layer 2"><path class="cls-1" d="M52.34,53.6c-10.85,0-19.94-1.78-22.45-4.18a6.41,6.41,0,0,0-.51.47c1.47,2.71,11.19,4.81,23,4.81,12.78,0,23.15-2.47,23.15-5.52a1.33,1.33,0,0,0-.12-.55C74.2,51.42,64.34,53.6,52.34,53.6Z"/><path class="cls-1" d="M86,13.58a4.93,4.93,0,0,1,.9.2,1.91,1.91,0,0,1,.43.21.71.71,0,0,1,.09.07l0,0,0,.05.18.21a4.52,4.52,0,0,1,.81,1.88c.07.29.1.53.13.7l0,.19a80.63,80.63,0,0,1,0,8.66c.73.22,1.17,1.21,1.42,2.32l9.94-2.4s0-1.2-8.1-7.37c-.68-.52-1.45-1.07-2.3-1.66l0,0c-.06-.19-.14-.45-.26-.76a7.84,7.84,0,0,0-.5-1,4,4,0,0,0-.81-1l-.24-.19-.06-.05-.07,0a.55.55,0,0,0-.15-.08,2.13,2.13,0,0,0-.56-.15,5,5,0,0,0-1,0,8,8,0,0,0-.91.13A8.86,8.86,0,0,1,86,13.58Z"/><path class="cls-1" d="M87.4,26l.24-.13c0-1.89.12-8.29-.19-9.73a3.16,3.16,0,0,0-.71-1.42C76.93,8.39,61.71,0,61.71,0s-5.45,3.09-19,7.54S0,19.88,0,19.88c6.19,5.83,26.8,14.57,26.8,14.57a65.11,65.11,0,0,1-.14-8.4c.29-2.57,3.68-6,8.54-7.71S52.1,12,64.51,14.57c9.23,1.9,14,9.94,14,9.94L78.06,31l7.83-1.89A3.83,3.83,0,0,1,87.4,26ZM61.63,3V1.82L84.8,15.23Z"/><path class="cls-1" d="M88.43,28s0,.53.1,1.45c0,.7.11,1.64.18,2.74h.14c.16,0,1.23.4,1.2.6a5.72,5.72,0,0,0,.06-.7c.08-2.09-.49-6.34-2.67-4.88-1.72,1.16-1.46,3.9-1.19,5.82a1.74,1.74,0,0,1,1.41-.73l.71-.07c0-1.11,0-2.05,0-2.76C88.41,28.56,88.43,28,88.43,28Z"/><path class="cls-1" d="M89,36.92a3.29,3.29,0,0,1,1.18.58L90,33.88a3.73,3.73,0,0,0-1.18-.66v.08C88.83,34.39,88.89,35.61,89,36.92Z"/><path class="cls-1" d="M88.36,33.12a2.13,2.13,0,0,0-2.13,1l-.06,3.33a5.73,5.73,0,0,1,2.21-.62c0-1.26,0-2.44,0-3.5Z"/><path class="cls-1" d="M90.11,43c0-.86.36-3.3,0-4.06a2.67,2.67,0,0,0-1.08-1l0,.81c0,1,.08,2,.12,3l.09,3.14c0,1.06,0,2.11.08,3.15s0,2.06,0,3.05c0,2,0,3.83,0,5.41s0,2.9,0,3.83,0,1.45,0,1.45l-.11-1.45c0-.92-.15-2.24-.23-3.82s-.18-3.42-.26-5.4c0-1-.08-2-.11-3s-.06-2.1-.1-3.15,0-2.11-.07-3.15,0-2.06,0-3.05c0-.33,0-.66,0-1a2.9,2.9,0,0,0-2.22,1c-.31.28.07,3.6.08,4l.21,9.89c.07,3.06.2,6.13.08,9.18a9.07,9.07,0,0,0,.35,3.65A12.83,12.83,0,0,0,87.64,67c1.19,2.31,1.4,5.11,1.58,7.8,1.86-7.24,1-15.14,1-22.59Q90.15,47.57,90.11,43Z"/><path class="cls-1" d="M74.19,22.16c-.23,4.54-1,20.52-1,21.16s-.81-18-1-22.78a24.71,24.71,0,0,0-11.92-4.77c-10.17-1-18,2.23-22.83,3.43s-8.4,4.11-9.13,5.65-.59,4.8-.59,4.8L29,49s1.77-3.26,10.61-4.12S58,50.56,58,50.56s.14-.69,5.3-3.26,12.22-.85,12.22-.85l1.33-21.6A23.62,23.62,0,0,0,74.19,22.16ZM31.85,24.27c-1.55,2.26-2.59,3.76-2.33,8.89,0,0-.51-5.88,0-7.24s2.72-3.46,5.31-4.51a22.26,22.26,0,0,1,4.53-1.36S33.41,22,31.85,24.27Z"/></g></g></svg>